  0
SECTION
  2
BLOCKS
  0
ENDSEC
  0
SECTION
  2
ENTITIES
  0
LINE
  8
0
 10
23.354
 20
245.321
 11
24.0052
 21
245.386
  0
LINE
  8
0
 10
24.0052
 20
245.386
 11
24.6509
 21
245.492
  0
LINE
  8
0
 10
24.6509
 20
245.492
 11
25.2882
 21
245.641
  0
LINE
  8
0
 10
25.2882
 20
245.641
 11
25.9144
 21
245.831
  0
LINE
  8
0
 10
25.9144
 20
245.831
 11
26.5268
 21
246.061
  0
LINE
  8
0
 10
26.5268
 20
246.061
 11
27.1229
 21
246.331
  0
LINE
  8
0
 10
27.1229
 20
246.331
 11
27.7
 21
246.64
  0
LINE
  8
0
 10
27.7
 20
246.64
 11
28.2557
 21
246.985
  0
LINE
  8
0
 10
28.2557
 20
246.985
 11
28.7876
 21
247.366
  0
LINE
  8
0
 10
28.7876
 20
247.366
 11
29.2935
 21
247.782
  0
LINE
  8
0
 10
29.2935
 20
247.782
 11
29.7711
 21
248.229
  0
LINE
  8
0
 10
29.7711
 20
248.229
 11
30.2184
 21
248.707
  0
LINE
  8
0
 10
30.2184
 20
248.707
 11
30.6335
 21
249.212
  0
LINE
  8
0
 10
30.6335
 20
249.212
 11
31.0147
 21
249.744
  0
LINE
  8
0
 10
31.0147
 20
249.744
 11
31.3602
 21
250.3
  0
LINE
  8
0
 10
31.3602
 20
250.3
 11
31.6687
 21
250.877
  0
LINE
  8
0
 10
31.6687
 20
250.877
 11
31.9388
 21
251.473
  0
LINE
  8
0
 10
31.9388
 20
251.473
 11
32.1693
 21
252.086
  0
LINE
  8
0
 10
32.1693
 20
252.086
 11
32.3593
 21
252.712
  0
LINE
  8
0
 10
32.3593
 20
252.712
 11
32.5078
 21
253.349
  0
LINE
  8
0
 10
32.5078
 20
253.349
 11
32.6144
 21
253.995
  0
LINE
  8
0
 10
32.6144
 20
253.995
 11
32.6786
 21
254.646
  0
LINE
  8
0
 10
32.6786
 20
254.646
 11
32.7
 21
255.3
  0
LINE
  8
0
 10
32.7
 20
255.3
 11
32.6786
 21
255.954
  0
LINE
  8
0
 10
32.6786
 20
255.954
 11
32.6144
 21
256.605
  0
LINE
  8
0
 10
32.6144
 20
256.605
 11
32.5078
 21
257.251
  0
LINE
  8
0
 10
32.5078
 20
257.251
 11
32.3593
 21
257.888
  0
LINE
  8
0
 10
32.3593
 20
257.888
 11
32.1693
 21
258.514
  0
LINE
  8
0
 10
32.1693
 20
258.514
 11
31.9388
 21
259.127
  0
LINE
  8
0
 10
31.9388
 20
259.127
 11
31.6687
 21
259.723
  0
LINE
  8
0
 10
31.6687
 20
259.723
 11
31.3602
 21
260.3
  0
LINE
  8
0
 10
31.3602
 20
260.3
 11
31.0147
 21
260.856
  0
LINE
  8
0
 10
31.0147
 20
260.856
 11
30.6335
 21
261.388
  0
LINE
  8
0
 10
30.6335
 20
261.388
 11
30.2184
 21
261.893
  0
LINE
  8
0
 10
30.2184
 20
261.893
 11
29.7711
 21
262.371
  0
LINE
  8
0
 10
29.7711
 20
262.371
 11
29.2935
 21
262.818
  0
LINE
  8
0
 10
29.2935
 20
262.818
 11
28.7876
 21
263.234
  0
LINE
  8
0
 10
28.7876
 20
263.234
 11
28.2557
 21
263.615
  0
LINE
  8
0
 10
28.2557
 20
263.615
 11
27.7
 21
263.96
  0
LINE
  8
0
 10
27.7
 20
263.96
 11
27.1229
 21
264.269
  0
LINE
  8
0
 10
27.1229
 20
264.269
 11
26.5268
 21
264.539
  0
LINE
  8
0
 10
26.5268
 20
264.539
 11
25.9144
 21
264.769
  0
LINE
  8
0
 10
25.9144
 20
264.769
 11
25.2882
 21
264.959
  0
LINE
  8
0
 10
25.2882
 20
264.959
 11
24.6509
 21
265.108
  0
LINE
  8
0
 10
24.6509
 20
265.108
 11
24.0052
 21
265.214
  0
LINE
  8
0
 10
24.0052
 20
265.214
 11
23.354
 21
265.279
  0
LINE
  8
0
 10
23.354
 20
265.279
 11
22.7
 21
265.3
  0
LINE
  8
0
 10
22.7
 20
265.3
 11
22.046
 21
265.279
  0
LINE
  8
0
 10
22.046
 20
265.279
 11
21.3947
 21
265.214
  0
LINE
  8
0
 10
21.3947
 20
265.214
 11
20.7491
 21
265.108
  0
LINE
  8
0
 10
20.7491
 20
265.108
 11
20.1118
 21
264.959
  0
LINE
  8
0
 10
20.1118
 20
264.959
 11
19.4856
 21
264.769
  0
LINE
  8
0
 10
19.4856
 20
264.769
 11
18.8732
 21
264.539
  0
LINE
  8
0
 10
18.8732
 20
264.539
 11
18.2771
 21
264.269
  0
LINE
  8
0
 10
18.2771
 20
264.269
 11
17.7
 21
263.96
  0
LINE
  8
0
 10
17.7
 20
263.96
 11
17.1443
 21
263.615
  0
LINE
  8
0
 10
17.1443
 20
263.615
 11
16.6124
 21
263.234
  0
LINE
  8
0
 10
16.6124
 20
263.234
 11
16.1065
 21
262.818
  0
LINE
  8
0
 10
16.1065
 20
262.818
 11
15.6289
 21
262.371
  0
LINE
  8
0
 10
15.6289
 20
262.371
 11
15.1816
 21
261.893
  0
LINE
  8
0
 10
15.1816
 20
261.893
 11
14.7665
 21
261.388
  0
LINE
  8
0
 10
14.7665
 20
261.388
 11
14.3853
 21
260.856
  0
LINE
  8
0
 10
14.3853
 20
260.856
 11
14.0397
 21
260.3
  0
LINE
  8
0
 10
14.0397
 20
260.3
 11
13.7313
 21
259.723
  0
LINE
  8
0
 10
13.7313
 20
259.723
 11
13.4612
 21
259.127
  0
LINE
  8
0
 10
13.4612
 20
259.127
 11
13.2307
 21
258.514
  0
LINE
  8
0
 10
13.2307
 20
258.514
 11
13.0407
 21
257.888
  0
LINE
  8
0
 10
13.0407
 20
257.888
 11
12.8921
 21
257.251
  0
LINE
  8
0
 10
12.8921
 20
257.251
 11
12.7855
 21
256.605
  0
LINE
  8
0
 10
12.7855
 20
256.605
 11
12.7214
 21
255.954
  0
LINE
  8
0
 10
12.7214
 20
255.954
 11
12.7
 21
255.3
  0
LINE
  8
0
 10
12.7
 20
255.3
 11
12.7214
 21
254.646
  0
LINE
  8
0
 10
12.7214
 20
254.646
 11
12.7855
 21
253.995
  0
LINE
  8
0
 10
12.7855
 20
253.995
 11
12.8921
 21
253.349
  0
LINE
  8
0
 10
12.8921
 20
253.349
 11
13.0407
 21
252.712
  0
LINE
  8
0
 10
13.0407
 20
252.712
 11
13.2307
 21
252.086
  0
LINE
  8
0
 10
13.2307
 20
252.086
 11
13.4612
 21
251.473
  0
LINE
  8
0
 10
13.4612
 20
251.473
 11
13.7313
 21
250.877
  0
LINE
  8
0
 10
13.7313
 20
250.877
 11
14.0397
 21
250.3
  0
LINE
  8
0
 10
14.0397
 20
250.3
 11
14.3853
 21
249.744
  0
LINE
  8
0
 10
14.3853
 20
249.744
 11
14.7665
 21
249.212
  0
LINE
  8
0
 10
14.7665
 20
249.212
 11
15.1816
 21
248.707
  0
LINE
  8
0
 10
15.1816
 20
248.707
 11
15.6289
 21
248.229
  0
LINE
  8
0
 10
15.6289
 20
248.229
 11
16.1065
 21
247.782
  0
LINE
  8
0
 10
16.1065
 20
247.782
 11
16.6124
 21
247.366
  0
LINE
  8
0
 10
16.6124
 20
247.366
 11
17.1443
 21
246.985
  0
LINE
  8
0
 10
17.1443
 20
246.985
 11
17.7
 21
246.64
  0
LINE
  8
0
 10
17.7
 20
246.64
 11
18.2771
 21
246.331
  0
LINE
  8
0
 10
18.2771
 20
246.331
 11
18.8732
 21
246.061
  0
LINE
  8
0
 10
18.8732
 20
246.061
 11
19.4856
 21
245.831
  0
LINE
  8
0
 10
19.4856
 20
245.831
 11
20.1118
 21
245.641
  0
LINE
  8
0
 10
20.1118
 20
245.641
 11
20.7491
 21
245.492
  0
LINE
  8
0
 10
20.7491
 20
245.492
 11
21.3947
 21
245.386
  0
LINE
  8
0
 10
21.3947
 20
245.386
 11
22.046
 21
245.321
  0
LINE
  8
0
 10
22.046
 20
245.321
 11
22.7
 21
245.3
  0
LINE
  8
0
 10
22.7
 20
245.3
 11
23.354
 21
245.321
  0
LINE
  8
0
 10
255.954
 20
245.321
 11
256.605
 21
245.386
  0
LINE
  8
0
 10
256.605
 20
245.386
 11
257.251
 21
245.492
  0
LINE
  8
0
 10
257.251
 20
245.492
 11
257.888
 21
245.641
  0
LINE
  8
0
 10
257.888
 20
245.641
 11
258.514
 21
245.831
  0
LINE
  8
0
 10
258.514
 20
245.831
 11
259.127
 21
246.061
  0
LINE
  8
0
 10
259.127
 20
246.061
 11
259.723
 21
246.331
  0
LINE
  8
0
 10
259.723
 20
246.331
 11
260.3
 21
246.64
  0
LINE
  8
0
 10
260.3
 20
246.64
 11
260.856
 21
246.985
  0
LINE
  8
0
 10
260.856
 20
246.985
 11
261.388
 21
247.366
  0
LINE
  8
0
 10
261.388
 20
247.366
 11
261.893
 21
247.782
  0
LINE
  8
0
 10
261.893
 20
247.782
 11
262.371
 21
248.229
  0
LINE
  8
0
 10
262.371
 20
248.229
 11
262.818
 21
248.707
  0
LINE
  8
0
 10
262.818
 20
248.707
 11
263.234
 21
249.212
  0
LINE
  8
0
 10
263.234
 20
249.212
 11
263.615
 21
249.744
  0
LINE
  8
0
 10
263.615
 20
249.744
 11
263.96
 21
250.3
  0
LINE
  8
0
 10
263.96
 20
250.3
 11
264.269
 21
250.877
  0
LINE
  8
0
 10
264.269
 20
250.877
 11
264.539
 21
251.473
  0
LINE
  8
0
 10
264.539
 20
251.473
 11
264.769
 21
252.086
  0
LINE
  8
0
 10
264.769
 20
252.086
 11
264.959
 21
252.712
  0
LINE
  8
0
 10
264.959
 20
252.712
 11
265.108
 21
253.349
  0
LINE
  8
0
 10
265.108
 20
253.349
 11
265.214
 21
253.995
  0
LINE
  8
0
 10
265.214
 20
253.995
 11
265.279
 21
254.646
  0
LINE
  8
0
 10
265.279
 20
254.646
 11
265.3
 21
255.3
  0
LINE
  8
0
 10
265.3
 20
255.3
 11
265.279
 21
255.954
  0
LINE
  8
0
 10
265.279
 20
255.954
 11
265.214
 21
256.605
  0
LINE
  8
0
 10
265.214
 20
256.605
 11
265.108
 21
257.251
  0
LINE
  8
0
 10
265.108
 20
257.251
 11
264.959
 21
257.888
  0
LINE
  8
0
 10
264.959
 20
257.888
 11
264.769
 21
258.514
  0
LINE
  8
0
 10
264.769
 20
258.514
 11
264.539
 21
259.127
  0
LINE
  8
0
 10
264.539
 20
259.127
 11
264.269
 21
259.723
  0
LINE
  8
0
 10
264.269
 20
259.723
 11
263.96
 21
260.3
  0
LINE
  8
0
 10
263.96
 20
260.3
 11
263.615
 21
260.856
  0
LINE
  8
0
 10
263.615
 20
260.856
 11
263.234
 21
261.388
  0
LINE
  8
0
 10
263.234
 20
261.388
 11
262.818
 21
261.893
  0
LINE
  8
0
 10
262.818
 20
261.893
 11
262.371
 21
262.371
  0
LINE
  8
0
 10
262.371
 20
262.371
 11
261.893
 21
262.818
  0
LINE
  8
0
 10
261.893
 20
262.818
 11
261.388
 21
263.234
  0
LINE
  8
0
 10
261.388
 20
263.234
 11
260.856
 21
263.615
  0
LINE
  8
0
 10
260.856
 20
263.615
 11
260.3
 21
263.96
  0
LINE
  8
0
 10
260.3
 20
263.96
 11
259.723
 21
264.269
  0
LINE
  8
0
 10
259.723
 20
264.269
 11
259.127
 21
264.539
  0
LINE
  8
0
 10
259.127
 20
264.539
 11
258.514
 21
264.769
  0
LINE
  8
0
 10
258.514
 20
264.769
 11
257.888
 21
264.959
  0
LINE
  8
0
 10
257.888
 20
264.959
 11
257.251
 21
265.108
  0
LINE
  8
0
 10
257.251
 20
265.108
 11
256.605
 21
265.214
  0
LINE
  8
0
 10
256.605
 20
265.214
 11
255.954
 21
265.279
  0
LINE
  8
0
 10
255.954
 20
265.279
 11
255.3
 21
265.3
  0
LINE
  8
0
 10
255.3
 20
265.3
 11
254.646
 21
265.279
  0
LINE
  8
0
 10
254.646
 20
265.279
 11
253.995
 21
265.214
  0
LINE
  8
0
 10
253.995
 20
265.214
 11
253.349
 21
265.108
  0
LINE
  8
0
 10
253.349
 20
265.108
 11
252.712
 21
264.959
  0
LINE
  8
0
 10
252.712
 20
264.959
 11
252.086
 21
264.769
  0
LINE
  8
0
 10
252.086
 20
264.769
 11
251.473
 21
264.539
  0
LINE
  8
0
 10
251.473
 20
264.539
 11
250.877
 21
264.269
  0
LINE
  8
0
 10
250.877
 20
264.269
 11
250.3
 21
263.96
  0
LINE
  8
0
 10
250.3
 20
263.96
 11
249.744
 21
263.615
  0
LINE
  8
0
 10
249.744
 20
263.615
 11
249.212
 21
263.234
  0
LINE
  8
0
 10
249.212
 20
263.234
 11
248.707
 21
262.818
  0
LINE
  8
0
 10
248.707
 20
262.818
 11
248.229
 21
262.371
  0
LINE
  8
0
 10
248.229
 20
262.371
 11
247.782
 21
261.893
  0
LINE
  8
0
 10
247.782
 20
261.893
 11
247.366
 21
261.388
  0
LINE
  8
0
 10
247.366
 20
261.388
 11
246.985
 21
260.856
  0
LINE
  8
0
 10
246.985
 20
260.856
 11
246.64
 21
260.3
  0
LINE
  8
0
 10
246.64
 20
260.3
 11
246.331
 21
259.723
  0
LINE
  8
0
 10
246.331
 20
259.723
 11
246.061
 21
259.127
  0
LINE
  8
0
 10
246.061
 20
259.127
 11
245.831
 21
258.514
  0
LINE
  8
0
 10
245.831
 20
258.514
 11
245.641
 21
257.888
  0
LINE
  8
0
 10
245.641
 20
257.888
 11
245.492
 21
257.251
  0
LINE
  8
0
 10
245.492
 20
257.251
 11
245.386
 21
256.605
  0
LINE
  8
0
 10
245.386
 20
256.605
 11
245.321
 21
255.954
  0
LINE
  8
0
 10
245.321
 20
255.954
 11
245.3
 21
255.3
  0
LINE
  8
0
 10
245.3
 20
255.3
 11
245.321
 21
254.646
  0
LINE
  8
0
 10
245.321
 20
254.646
 11
245.386
 21
253.995
  0
LINE
  8
0
 10
245.386
 20
253.995
 11
245.492
 21
253.349
  0
LINE
  8
0
 10
245.492
 20
253.349
 11
245.641
 21
252.712
  0
LINE
  8
0
 10
245.641
 20
252.712
 11
245.831
 21
252.086
  0
LINE
  8
0
 10
245.831
 20
252.086
 11
246.061
 21
251.473
  0
LINE
  8
0
 10
246.061
 20
251.473
 11
246.331
 21
250.877
  0
LINE
  8
0
 10
246.331
 20
250.877
 11
246.64
 21
250.3
  0
LINE
  8
0
 10
246.64
 20
250.3
 11
246.985
 21
249.744
  0
LINE
  8
0
 10
246.985
 20
249.744
 11
247.366
 21
249.212
  0
LINE
  8
0
 10
247.366
 20
249.212
 11
247.782
 21
248.707
  0
LINE
  8
0
 10
247.782
 20
248.707
 11
248.229
 21
248.229
  0
LINE
  8
0
 10
248.229
 20
248.229
 11
248.707
 21
247.782
  0
LINE
  8
0
 10
248.707
 20
247.782
 11
249.212
 21
247.366
  0
LINE
  8
0
 10
249.212
 20
247.366
 11
249.744
 21
246.985
  0
LINE
  8
0
 10
249.744
 20
246.985
 11
250.3
 21
246.64
  0
LINE
  8
0
 10
250.3
 20
246.64
 11
250.877
 21
246.331
  0
LINE
  8
0
 10
250.877
 20
246.331
 11
251.473
 21
246.061
  0
LINE
  8
0
 10
251.473
 20
246.061
 11
252.086
 21
245.831
  0
LINE
  8
0
 10
252.086
 20
245.831
 11
252.712
 21
245.641
  0
LINE
  8
0
 10
252.712
 20
245.641
 11
253.349
 21
245.492
  0
LINE
  8
0
 10
253.349
 20
245.492
 11
253.995
 21
245.386
  0
LINE
  8
0
 10
253.995
 20
245.386
 11
254.646
 21
245.321
  0
LINE
  8
0
 10
254.646
 20
245.321
 11
255.3
 21
245.3
  0
LINE
  8
0
 10
255.3
 20
245.3
 11
255.954
 21
245.321
  0
LINE
  8
0
 10
23.354
 20
12.7214
 11
24.0052
 21
12.7855
  0
LINE
  8
0
 10
24.0052
 20
12.7855
 11
24.6509
 21
12.8921
  0
LINE
  8
0
 10
24.6509
 20
12.8921
 11
25.2882
 21
13.0407
  0
LINE
  8
0
 10
25.2882
 20
13.0407
 11
25.9144
 21
13.2307
  0
LINE
  8
0
 10
25.9144
 20
13.2307
 11
26.5268
 21
13.4612
  0
LINE
  8
0
 10
26.5268
 20
13.4612
 11
27.1229
 21
13.7313
  0
LINE
  8
0
 10
27.1229
 20
13.7313
 11
27.7
 21
14.0397
  0
LINE
  8
0
 10
27.7
 20
14.0397
 11
28.2557
 21
14.3853
  0
LINE
  8
0
 10
28.2557
 20
14.3853
 11
28.7876
 21
14.7665
  0
LINE
  8
0
 10
28.7876
 20
14.7665
 11
29.2935
 21
15.1816
  0
LINE
  8
0
 10
29.2935
 20
15.1816
 11
29.7711
 21
15.6289
  0
LINE
  8
0
 10
29.7711
 20
15.6289
 11
30.2184
 21
16.1065
  0
LINE
  8
0
 10
30.2184
 20
16.1065
 11
30.6335
 21
16.6124
  0
LINE
  8
0
 10
30.6335
 20
16.6124
 11
31.0147
 21
17.1443
  0
LINE
  8
0
 10
31.0147
 20
17.1443
 11
31.3602
 21
17.7
  0
LINE
  8
0
 10
31.3602
 20
17.7
 11
31.6687
 21
18.2771
  0
LINE
  8
0
 10
31.6687
 20
18.2771
 11
31.9388
 21
18.8732
  0
LINE
  8
0
 10
31.9388
 20
18.8732
 11
32.1693
 21
19.4856
  0
LINE
  8
0
 10
32.1693
 20
19.4856
 11
32.3593
 21
20.1118
  0
LINE
  8
0
 10
32.3593
 20
20.1118
 11
32.5078
 21
20.7491
  0
LINE
  8
0
 10
32.5078
 20
20.7491
 11
32.6144
 21
21.3947
  0
LINE
  8
0
 10
32.6144
 20
21.3947
 11
32.6786
 21
22.046
  0
LINE
  8
0
 10
32.6786
 20
22.046
 11
32.7
 21
22.7
  0
LINE
  8
0
 10
32.7
 20
22.7
 11
32.6786
 21
23.354
  0
LINE
  8
0
 10
32.6786
 20
23.354
 11
32.6144
 21
24.0052
  0
LINE
  8
0
 10
32.6144
 20
24.0052
 11
32.5078
 21
24.6509
  0
LINE
  8
0
 10
32.5078
 20
24.6509
 11
32.3593
 21
25.2882
  0
LINE
  8
0
 10
32.3593
 20
25.2882
 11
32.1693
 21
25.9144
  0
LINE
  8
0
 10
32.1693
 20
25.9144
 11
31.9388
 21
26.5268
  0
LINE
  8
0
 10
31.9388
 20
26.5268
 11
31.6687
 21
27.1229
  0
LINE
  8
0
 10
31.6687
 20
27.1229
 11
31.3602
 21
27.7
  0
LINE
  8
0
 10
31.3602
 20
27.7
 11
31.0147
 21
28.2557
  0
LINE
  8
0
 10
31.0147
 20
28.2557
 11
30.6335
 21
28.7876
  0
LINE
  8
0
 10
30.6335
 20
28.7876
 11
30.2184
 21
29.2935
  0
LINE
  8
0
 10
30.2184
 20
29.2935
 11
29.7711
 21
29.7711
  0
LINE
  8
0
 10
29.7711
 20
29.7711
 11
29.2935
 21
30.2184
  0
LINE
  8
0
 10
29.2935
 20
30.2184
 11
28.7876
 21
30.6335
  0
LINE
  8
0
 10
28.7876
 20
30.6335
 11
28.2557
 21
31.0147
  0
LINE
  8
0
 10
28.2557
 20
31.0147
 11
27.7
 21
31.3602
  0
LINE
  8
0
 10
27.7
 20
31.3602
 11
27.1229
 21
31.6687
  0
LINE
  8
0
 10
27.1229
 20
31.6687
 11
26.5268
 21
31.9388
  0
LINE
  8
0
 10
26.5268
 20
31.9388
 11
25.9144
 21
32.1693
  0
LINE
  8
0
 10
25.9144
 20
32.1693
 11
25.2882
 21
32.3593
  0
LINE
  8
0
 10
25.2882
 20
32.3593
 11
24.6509
 21
32.5078
  0
LINE
  8
0
 10
24.6509
 20
32.5078
 11
24.0052
 21
32.6144
  0
LINE
  8
0
 10
24.0052
 20
32.6144
 11
23.354
 21
32.6786
  0
LINE
  8
0
 10
23.354
 20
32.6786
 11
22.7
 21
32.7
  0
LINE
  8
0
 10
22.7
 20
32.7
 11
22.046
 21
32.6786
  0
LINE
  8
0
 10
22.046
 20
32.6786
 11
21.3947
 21
32.6144
  0
LINE
  8
0
 10
21.3947
 20
32.6144
 11
20.7491
 21
32.5078
  0
LINE
  8
0
 10
20.7491
 20
32.5078
 11
20.1118
 21
32.3593
  0
LINE
  8
0
 10
20.1118
 20
32.3593
 11
19.4856
 21
32.1693
  0
LINE
  8
0
 10
19.4856
 20
32.1693
 11
18.8732
 21
31.9388
  0
LINE
  8
0
 10
18.8732
 20
31.9388
 11
18.2771
 21
31.6687
  0
LINE
  8
0
 10
18.2771
 20
31.6687
 11
17.7
 21
31.3602
  0
LINE
  8
0
 10
17.7
 20
31.3602
 11
17.1443
 21
31.0147
  0
LINE
  8
0
 10
17.1443
 20
31.0147
 11
16.6124
 21
30.6335
  0
LINE
  8
0
 10
16.6124
 20
30.6335
 11
16.1065
 21
30.2184
  0
LINE
  8
0
 10
16.1065
 20
30.2184
 11
15.6289
 21
29.7711
  0
LINE
  8
0
 10
15.6289
 20
29.7711
 11
15.1816
 21
29.2935
  0
LINE
  8
0
 10
15.1816
 20
29.2935
 11
14.7665
 21
28.7876
  0
LINE
  8
0
 10
14.7665
 20
28.7876
 11
14.3853
 21
28.2557
  0
LINE
  8
0
 10
14.3853
 20
28.2557
 11
14.0397
 21
27.7
  0
LINE
  8
0
 10
14.0397
 20
27.7
 11
13.7313
 21
27.1229
  0
LINE
  8
0
 10
13.7313
 20
27.1229
 11
13.4612
 21
26.5268
  0
LINE
  8
0
 10
13.4612
 20
26.5268
 11
13.2307
 21
25.9144
  0
LINE
  8
0
 10
13.2307
 20
25.9144
 11
13.0407
 21
25.2882
  0
LINE
  8
0
 10
13.0407
 20
25.2882
 11
12.8921
 21
24.6509
  0
LINE
  8
0
 10
12.8921
 20
24.6509
 11
12.7855
 21
24.0052
  0
LINE
  8
0
 10
12.7855
 20
24.0052
 11
12.7214
 21
23.354
  0
LINE
  8
0
 10
12.7214
 20
23.354
 11
12.7
 21
22.7
  0
LINE
  8
0
 10
12.7
 20
22.7
 11
12.7214
 21
22.046
  0
LINE
  8
0
 10
12.7214
 20
22.046
 11
12.7855
 21
21.3947
  0
LINE
  8
0
 10
12.7855
 20
21.3947
 11
12.8921
 21
20.7491
  0
LINE
  8
0
 10
12.8921
 20
20.7491
 11
13.0407
 21
20.1118
  0
LINE
  8
0
 10
13.0407
 20
20.1118
 11
13.2307
 21
19.4856
  0
LINE
  8
0
 10
13.2307
 20
19.4856
 11
13.4612
 21
18.8732
  0
LINE
  8
0
 10
13.4612
 20
18.8732
 11
13.7313
 21
18.2771
  0
LINE
  8
0
 10
13.7313
 20
18.2771
 11
14.0397
 21
17.7
  0
LINE
  8
0
 10
14.0397
 20
17.7
 11
14.3853
 21
17.1443
  0
LINE
  8
0
 10
14.3853
 20
17.1443
 11
14.7665
 21
16.6124
  0
LINE
  8
0
 10
14.7665
 20
16.6124
 11
15.1816
 21
16.1065
  0
LINE
  8
0
 10
15.1816
 20
16.1065
 11
15.6289
 21
15.6289
  0
LINE
  8
0
 10
15.6289
 20
15.6289
 11
16.1065
 21
15.1816
  0
LINE
  8
0
 10
16.1065
 20
15.1816
 11
16.6124
 21
14.7665
  0
LINE
  8
0
 10
16.6124
 20
14.7665
 11
17.1443
 21
14.3853
  0
LINE
  8
0
 10
17.1443
 20
14.3853
 11
17.7
 21
14.0397
  0
LINE
  8
0
 10
17.7
 20
14.0397
 11
18.2771
 21
13.7313
  0
LINE
  8
0
 10
18.2771
 20
13.7313
 11
18.8732
 21
13.4612
  0
LINE
  8
0
 10
18.8732
 20
13.4612
 11
19.4856
 21
13.2307
  0
LINE
  8
0
 10
19.4856
 20
13.2307
 11
20.1118
 21
13.0407
  0
LINE
  8
0
 10
20.1118
 20
13.0407
 11
20.7491
 21
12.8921
  0
LINE
  8
0
 10
20.7491
 20
12.8921
 11
21.3947
 21
12.7855
  0
LINE
  8
0
 10
21.3947
 20
12.7855
 11
22.046
 21
12.7214
  0
LINE
  8
0
 10
22.046
 20
12.7214
 11
22.7
 21
12.7
  0
LINE
  8
0
 10
22.7
 20
12.7
 11
23.354
 21
12.7214
  0
LINE
  8
0
 10
255.954
 20
12.7214
 11
256.605
 21
12.7855
  0
LINE
  8
0
 10
256.605
 20
12.7855
 11
257.251
 21
12.8921
  0
LINE
  8
0
 10
257.251
 20
12.8921
 11
257.888
 21
13.0407
  0
LINE
  8
0
 10
257.888
 20
13.0407
 11
258.514
 21
13.2307
  0
LINE
  8
0
 10
258.514
 20
13.2307
 11
259.127
 21
13.4612
  0
LINE
  8
0
 10
259.127
 20
13.4612
 11
259.723
 21
13.7313
  0
LINE
  8
0
 10
259.723
 20
13.7313
 11
260.3
 21
14.0397
  0
LINE
  8
0
 10
260.3
 20
14.0397
 11
260.856
 21
14.3853
  0
LINE
  8
0
 10
260.856
 20
14.3853
 11
261.388
 21
14.7665
  0
LINE
  8
0
 10
261.388
 20
14.7665
 11
261.893
 21
15.1816
  0
LINE
  8
0
 10
261.893
 20
15.1816
 11
262.371
 21
15.6289
  0
LINE
  8
0
 10
262.371
 20
15.6289
 11
262.818
 21
16.1065
  0
LINE
  8
0
 10
262.818
 20
16.1065
 11
263.234
 21
16.6124
  0
LINE
  8
0
 10
263.234
 20
16.6124
 11
263.615
 21
17.1443
  0
LINE
  8
0
 10
263.615
 20
17.1443
 11
263.96
 21
17.7
  0
LINE
  8
0
 10
263.96
 20
17.7
 11
264.269
 21
18.2771
  0
LINE
  8
0
 10
264.269
 20
18.2771
 11
264.539
 21
18.8732
  0
LINE
  8
0
 10
264.539
 20
18.8732
 11
264.769
 21
19.4856
  0
LINE
  8
0
 10
264.769
 20
19.4856
 11
264.959
 21
20.1118
  0
LINE
  8
0
 10
264.959
 20
20.1118
 11
265.108
 21
20.7491
  0
LINE
  8
0
 10
265.108
 20
20.7491
 11
265.214
 21
21.3947
  0
LINE
  8
0
 10
265.214
 20
21.3947
 11
265.279
 21
22.046
  0
LINE
  8
0
 10
265.279
 20
22.046
 11
265.3
 21
22.7
  0
LINE
  8
0
 10
265.3
 20
22.7
 11
265.279
 21
23.354
  0
LINE
  8
0
 10
265.279
 20
23.354
 11
265.214
 21
24.0052
  0
LINE
  8
0
 10
265.214
 20
24.0052
 11
265.108
 21
24.6509
  0
LINE
  8
0
 10
265.108
 20
24.6509
 11
264.959
 21
25.2882
  0
LINE
  8
0
 10
264.959
 20
25.2882
 11
264.769
 21
25.9144
  0
LINE
  8
0
 10
264.769
 20
25.9144
 11
264.539
 21
26.5268
  0
LINE
  8
0
 10
264.539
 20
26.5268
 11
264.269
 21
27.1229
  0
LINE
  8
0
 10
264.269
 20
27.1229
 11
263.96
 21
27.7
  0
LINE
  8
0
 10
263.96
 20
27.7
 11
263.615
 21
28.2557
  0
LINE
  8
0
 10
263.615
 20
28.2557
 11
263.234
 21
28.7876
  0
LINE
  8
0
 10
263.234
 20
28.7876
 11
262.818
 21
29.2935
  0
LINE
  8
0
 10
262.818
 20
29.2935
 11
262.371
 21
29.7711
  0
LINE
  8
0
 10
262.371
 20
29.7711
 11
261.893
 21
30.2184
  0
LINE
  8
0
 10
261.893
 20
30.2184
 11
261.388
 21
30.6335
  0
LINE
  8
0
 10
261.388
 20
30.6335
 11
260.856
 21
31.0147
  0
LINE
  8
0
 10
260.856
 20
31.0147
 11
260.3
 21
31.3602
  0
LINE
  8
0
 10
260.3
 20
31.3602
 11
259.723
 21
31.6687
  0
LINE
  8
0
 10
259.723
 20
31.6687
 11
259.127
 21
31.9388
  0
LINE
  8
0
 10
259.127
 20
31.9388
 11
258.514
 21
32.1693
  0
LINE
  8
0
 10
258.514
 20
32.1693
 11
257.888
 21
32.3593
  0
LINE
  8
0
 10
257.888
 20
32.3593
 11
257.251
 21
32.5078
  0
LINE
  8
0
 10
257.251
 20
32.5078
 11
256.605
 21
32.6144
  0
LINE
  8
0
 10
256.605
 20
32.6144
 11
255.954
 21
32.6786
  0
LINE
  8
0
 10
255.954
 20
32.6786
 11
255.3
 21
32.7
  0
LINE
  8
0
 10
255.3
 20
32.7
 11
254.646
 21
32.6786
  0
LINE
  8
0
 10
254.646
 20
32.6786
 11
253.995
 21
32.6144
  0
LINE
  8
0
 10
253.995
 20
32.6144
 11
253.349
 21
32.5078
  0
LINE
  8
0
 10
253.349
 20
32.5078
 11
252.712
 21
32.3593
  0
LINE
  8
0
 10
252.712
 20
32.3593
 11
252.086
 21
32.1693
  0
LINE
  8
0
 10
252.086
 20
32.1693
 11
251.473
 21
31.9388
  0
LINE
  8
0
 10
251.473
 20
31.9388
 11
250.877
 21
31.6687
  0
LINE
  8
0
 10
250.877
 20
31.6687
 11
250.3
 21
31.3602
  0
LINE
  8
0
 10
250.3
 20
31.3602
 11
249.744
 21
31.0147
  0
LINE
  8
0
 10
249.744
 20
31.0147
 11
249.212
 21
30.6335
  0
LINE
  8
0
 10
249.212
 20
30.6335
 11
248.707
 21
30.2184
  0
LINE
  8
0
 10
248.707
 20
30.2184
 11
248.229
 21
29.7711
  0
LINE
  8
0
 10
248.229
 20
29.7711
 11
247.782
 21
29.2935
  0
LINE
  8
0
 10
247.782
 20
29.2935
 11
247.366
 21
28.7876
  0
LINE
  8
0
 10
247.366
 20
28.7876
 11
246.985
 21
28.2557
  0
LINE
  8
0
 10
246.985
 20
28.2557
 11
246.64
 21
27.7
  0
LINE
  8
0
 10
246.64
 20
27.7
 11
246.331
 21
27.1229
  0
LINE
  8
0
 10
246.331
 20
27.1229
 11
246.061
 21
26.5268
  0
LINE
  8
0
 10
246.061
 20
26.5268
 11
245.831
 21
25.9144
  0
LINE
  8
0
 10
245.831
 20
25.9144
 11
245.641
 21
25.2882
  0
LINE
  8
0
 10
245.641
 20
25.2882
 11
245.492
 21
24.6509
  0
LINE
  8
0
 10
245.492
 20
24.6509
 11
245.386
 21
24.0052
  0
LINE
  8
0
 10
245.386
 20
24.0052
 11
245.321
 21
23.354
  0
LINE
  8
0
 10
245.321
 20
23.354
 11
245.3
 21
22.7
  0
LINE
  8
0
 10
245.3
 20
22.7
 11
245.321
 21
22.046
  0
LINE
  8
0
 10
245.321
 20
22.046
 11
245.386
 21
21.3947
  0
LINE
  8
0
 10
245.386
 20
21.3947
 11
245.492
 21
20.7491
  0
LINE
  8
0
 10
245.492
 20
20.7491
 11
245.641
 21
20.1118
  0
LINE
  8
0
 10
245.641
 20
20.1118
 11
245.831
 21
19.4856
  0
LINE
  8
0
 10
245.831
 20
19.4856
 11
246.061
 21
18.8732
  0
LINE
  8
0
 10
246.061
 20
18.8732
 11
246.331
 21
18.2771
  0
LINE
  8
0
 10
246.331
 20
18.2771
 11
246.64
 21
17.7
  0
LINE
  8
0
 10
246.64
 20
17.7
 11
246.985
 21
17.1443
  0
LINE
  8
0
 10
246.985
 20
17.1443
 11
247.366
 21
16.6124
  0
LINE
  8
0
 10
247.366
 20
16.6124
 11
247.782
 21
16.1065
  0
LINE
  8
0
 10
247.782
 20
16.1065
 11
248.229
 21
15.6289
  0
LINE
  8
0
 10
248.229
 20
15.6289
 11
248.707
 21
15.1816
  0
LINE
  8
0
 10
248.707
 20
15.1816
 11
249.212
 21
14.7665
  0
LINE
  8
0
 10
249.212
 20
14.7665
 11
249.744
 21
14.3853
  0
LINE
  8
0
 10
249.744
 20
14.3853
 11
250.3
 21
14.0397
  0
LINE
  8
0
 10
250.3
 20
14.0397
 11
250.877
 21
13.7313
  0
LINE
  8
0
 10
250.877
 20
13.7313
 11
251.473
 21
13.4612
  0
LINE
  8
0
 10
251.473
 20
13.4612
 11
252.086
 21
13.2307
  0
LINE
  8
0
 10
252.086
 20
13.2307
 11
252.712
 21
13.0407
  0
LINE
  8
0
 10
252.712
 20
13.0407
 11
253.349
 21
12.8921
  0
LINE
  8
0
 10
253.349
 20
12.8921
 11
253.995
 21
12.7855
  0
LINE
  8
0
 10
253.995
 20
12.7855
 11
254.646
 21
12.7214
  0
LINE
  8
0
 10
254.646
 20
12.7214
 11
255.3
 21
12.7
  0
LINE
  8
0
 10
255.3
 20
12.7
 11
255.954
 21
12.7214
  0
ENDSEC
  0
SECTION
  2
OBJECTS
  0
DICTIONARY
  0
ENDSEC
  0
EOF
