  0
SECTION
  2
BLOCKS
  0
ENDSEC
  0
SECTION
  2
ENTITIES
  0
LINE
  8
0
 10
23.2232
 20
247.317
 11
23.7442
 21
247.368
  0
LINE
  8
0
 10
23.7442
 20
247.368
 11
24.2607
 21
247.454
  0
LINE
  8
0
 10
24.2607
 20
247.454
 11
24.7705
 21
247.573
  0
LINE
  8
0
 10
24.7705
 20
247.573
 11
25.2715
 21
247.725
  0
LINE
  8
0
 10
25.2715
 20
247.725
 11
25.7615
 21
247.909
  0
LINE
  8
0
 10
25.7615
 20
247.909
 11
26.2383
 21
248.125
  0
LINE
  8
0
 10
26.2383
 20
248.125
 11
26.7
 21
248.372
  0
LINE
  8
0
 10
26.7
 20
248.372
 11
27.1446
 21
248.648
  0
LINE
  8
0
 10
27.1446
 20
248.648
 11
27.5701
 21
248.953
  0
LINE
  8
0
 10
27.5701
 20
248.953
 11
27.9748
 21
249.285
  0
LINE
  8
0
 10
27.9748
 20
249.285
 11
28.3568
 21
249.643
  0
LINE
  8
0
 10
28.3568
 20
249.643
 11
28.7147
 21
250.025
  0
LINE
  8
0
 10
28.7147
 20
250.025
 11
29.0468
 21
250.43
  0
LINE
  8
0
 10
29.0468
 20
250.43
 11
29.3517
 21
250.855
  0
LINE
  8
0
 10
29.3517
 20
250.855
 11
29.6282
 21
251.3
  0
LINE
  8
0
 10
29.6282
 20
251.3
 11
29.875
 21
251.762
  0
LINE
  8
0
 10
29.875
 20
251.762
 11
30.091
 21
252.239
  0
LINE
  8
0
 10
30.091
 20
252.239
 11
30.2754
 21
252.728
  0
LINE
  8
0
 10
30.2754
 20
252.728
 11
30.4274
 21
253.229
  0
LINE
  8
0
 10
30.4274
 20
253.229
 11
30.5463
 21
253.739
  0
LINE
  8
0
 10
30.5463
 20
253.739
 11
30.6315
 21
254.256
  0
LINE
  8
0
 10
30.6315
 20
254.256
 11
30.6829
 21
254.777
  0
LINE
  8
0
 10
30.6829
 20
254.777
 11
30.7
 21
255.3
  0
LINE
  8
0
 10
30.7
 20
255.3
 11
30.6829
 21
255.823
  0
LINE
  8
0
 10
30.6829
 20
255.823
 11
30.6315
 21
256.344
  0
LINE
  8
0
 10
30.6315
 20
256.344
 11
30.5463
 21
256.861
  0
LINE
  8
0
 10
30.5463
 20
256.861
 11
30.4274
 21
257.371
  0
LINE
  8
0
 10
30.4274
 20
257.371
 11
30.2754
 21
257.872
  0
LINE
  8
0
 10
30.2754
 20
257.872
 11
30.091
 21
258.361
  0
LINE
  8
0
 10
30.091
 20
258.361
 11
29.875
 21
258.838
  0
LINE
  8
0
 10
29.875
 20
258.838
 11
29.6282
 21
259.3
  0
LINE
  8
0
 10
29.6282
 20
259.3
 11
29.3517
 21
259.745
  0
LINE
  8
0
 10
29.3517
 20
259.745
 11
29.0468
 21
260.17
  0
LINE
  8
0
 10
29.0468
 20
260.17
 11
28.7147
 21
260.575
  0
LINE
  8
0
 10
28.7147
 20
260.575
 11
28.3568
 21
260.957
  0
LINE
  8
0
 10
28.3568
 20
260.957
 11
27.9748
 21
261.315
  0
LINE
  8
0
 10
27.9748
 20
261.315
 11
27.5701
 21
261.647
  0
LINE
  8
0
 10
27.5701
 20
261.647
 11
27.1446
 21
261.952
  0
LINE
  8
0
 10
27.1446
 20
261.952
 11
26.7
 21
262.228
  0
LINE
  8
0
 10
26.7
 20
262.228
 11
26.2383
 21
262.475
  0
LINE
  8
0
 10
26.2383
 20
262.475
 11
25.7615
 21
262.691
  0
LINE
  8
0
 10
25.7615
 20
262.691
 11
25.2715
 21
262.875
  0
LINE
  8
0
 10
25.2715
 20
262.875
 11
24.7705
 21
263.027
  0
LINE
  8
0
 10
24.7705
 20
263.027
 11
24.2607
 21
263.146
  0
LINE
  8
0
 10
24.2607
 20
263.146
 11
23.7442
 21
263.232
  0
LINE
  8
0
 10
23.7442
 20
263.232
 11
23.2232
 21
263.283
  0
LINE
  8
0
 10
23.2232
 20
263.283
 11
22.7
 21
263.3
  0
LINE
  8
0
 10
22.7
 20
263.3
 11
22.1768
 21
263.283
  0
LINE
  8
0
 10
22.1768
 20
263.283
 11
21.6558
 21
263.232
  0
LINE
  8
0
 10
21.6558
 20
263.232
 11
21.1393
 21
263.146
  0
LINE
  8
0
 10
21.1393
 20
263.146
 11
20.6294
 21
263.027
  0
LINE
  8
0
 10
20.6294
 20
263.027
 11
20.1285
 21
262.875
  0
LINE
  8
0
 10
20.1285
 20
262.875
 11
19.6385
 21
262.691
  0
LINE
  8
0
 10
19.6385
 20
262.691
 11
19.1617
 21
262.475
  0
LINE
  8
0
 10
19.1617
 20
262.475
 11
18.7
 21
262.228
  0
LINE
  8
0
 10
18.7
 20
262.228
 11
18.2554
 21
261.952
  0
LINE
  8
0
 10
18.2554
 20
261.952
 11
17.8299
 21
261.647
  0
LINE
  8
0
 10
17.8299
 20
261.647
 11
17.4252
 21
261.315
  0
LINE
  8
0
 10
17.4252
 20
261.315
 11
17.0431
 21
260.957
  0
LINE
  8
0
 10
17.0431
 20
260.957
 11
16.6853
 21
260.575
  0
LINE
  8
0
 10
16.6853
 20
260.575
 11
16.3532
 21
260.17
  0
LINE
  8
0
 10
16.3532
 20
260.17
 11
16.0482
 21
259.745
  0
LINE
  8
0
 10
16.0482
 20
259.745
 11
15.7718
 21
259.3
  0
LINE
  8
0
 10
15.7718
 20
259.3
 11
15.525
 21
258.838
  0
LINE
  8
0
 10
15.525
 20
258.838
 11
15.309
 21
258.361
  0
LINE
  8
0
 10
15.309
 20
258.361
 11
15.1246
 21
257.872
  0
LINE
  8
0
 10
15.1246
 20
257.872
 11
14.9726
 21
257.371
  0
LINE
  8
0
 10
14.9726
 20
257.371
 11
14.8537
 21
256.861
  0
LINE
  8
0
 10
14.8537
 20
256.861
 11
14.7684
 21
256.344
  0
LINE
  8
0
 10
14.7684
 20
256.344
 11
14.7171
 21
255.823
  0
LINE
  8
0
 10
14.7171
 20
255.823
 11
14.7
 21
255.3
  0
LINE
  8
0
 10
14.7
 20
255.3
 11
14.7171
 21
254.777
  0
LINE
  8
0
 10
14.7171
 20
254.777
 11
14.7684
 21
254.256
  0
LINE
  8
0
 10
14.7684
 20
254.256
 11
14.8537
 21
253.739
  0
LINE
  8
0
 10
14.8537
 20
253.739
 11
14.9726
 21
253.229
  0
LINE
  8
0
 10
14.9726
 20
253.229
 11
15.1246
 21
252.728
  0
LINE
  8
0
 10
15.1246
 20
252.728
 11
15.309
 21
252.239
  0
LINE
  8
0
 10
15.309
 20
252.239
 11
15.525
 21
251.762
  0
LINE
  8
0
 10
15.525
 20
251.762
 11
15.7718
 21
251.3
  0
LINE
  8
0
 10
15.7718
 20
251.3
 11
16.0482
 21
250.855
  0
LINE
  8
0
 10
16.0482
 20
250.855
 11
16.3532
 21
250.43
  0
LINE
  8
0
 10
16.3532
 20
250.43
 11
16.6853
 21
250.025
  0
LINE
  8
0
 10
16.6853
 20
250.025
 11
17.0431
 21
249.643
  0
LINE
  8
0
 10
17.0431
 20
249.643
 11
17.4252
 21
249.285
  0
LINE
  8
0
 10
17.4252
 20
249.285
 11
17.8299
 21
248.953
  0
LINE
  8
0
 10
17.8299
 20
248.953
 11
18.2554
 21
248.648
  0
LINE
  8
0
 10
18.2554
 20
248.648
 11
18.7
 21
248.372
  0
LINE
  8
0
 10
18.7
 20
248.372
 11
19.1617
 21
248.125
  0
LINE
  8
0
 10
19.1617
 20
248.125
 11
19.6385
 21
247.909
  0
LINE
  8
0
 10
19.6385
 20
247.909
 11
20.1285
 21
247.725
  0
LINE
  8
0
 10
20.1285
 20
247.725
 11
20.6294
 21
247.573
  0
LINE
  8
0
 10
20.6294
 20
247.573
 11
21.1393
 21
247.454
  0
LINE
  8
0
 10
21.1393
 20
247.454
 11
21.6558
 21
247.368
  0
LINE
  8
0
 10
21.6558
 20
247.368
 11
22.1768
 21
247.317
  0
LINE
  8
0
 10
22.1768
 20
247.317
 11
22.7
 21
247.3
  0
LINE
  8
0
 10
22.7
 20
247.3
 11
23.2232
 21
247.317
  0
LINE
  8
0
 10
255.823
 20
247.317
 11
256.344
 21
247.368
  0
LINE
  8
0
 10
256.344
 20
247.368
 11
256.861
 21
247.454
  0
LINE
  8
0
 10
256.861
 20
247.454
 11
257.371
 21
247.573
  0
LINE
  8
0
 10
257.371
 20
247.573
 11
257.872
 21
247.725
  0
LINE
  8
0
 10
257.872
 20
247.725
 11
258.361
 21
247.909
  0
LINE
  8
0
 10
258.361
 20
247.909
 11
258.838
 21
248.125
  0
LINE
  8
0
 10
258.838
 20
248.125
 11
259.3
 21
248.372
  0
LINE
  8
0
 10
259.3
 20
248.372
 11
259.745
 21
248.648
  0
LINE
  8
0
 10
259.745
 20
248.648
 11
260.17
 21
248.953
  0
LINE
  8
0
 10
260.17
 20
248.953
 11
260.575
 21
249.285
  0
LINE
  8
0
 10
260.575
 20
249.285
 11
260.957
 21
249.643
  0
LINE
  8
0
 10
260.957
 20
249.643
 11
261.315
 21
250.025
  0
LINE
  8
0
 10
261.315
 20
250.025
 11
261.647
 21
250.43
  0
LINE
  8
0
 10
261.647
 20
250.43
 11
261.952
 21
250.855
  0
LINE
  8
0
 10
261.952
 20
250.855
 11
262.228
 21
251.3
  0
LINE
  8
0
 10
262.228
 20
251.3
 11
262.475
 21
251.762
  0
LINE
  8
0
 10
262.475
 20
251.762
 11
262.691
 21
252.239
  0
LINE
  8
0
 10
262.691
 20
252.239
 11
262.875
 21
252.728
  0
LINE
  8
0
 10
262.875
 20
252.728
 11
263.027
 21
253.229
  0
LINE
  8
0
 10
263.027
 20
253.229
 11
263.146
 21
253.739
  0
LINE
  8
0
 10
263.146
 20
253.739
 11
263.232
 21
254.256
  0
LINE
  8
0
 10
263.232
 20
254.256
 11
263.283
 21
254.777
  0
LINE
  8
0
 10
263.283
 20
254.777
 11
263.3
 21
255.3
  0
LINE
  8
0
 10
263.3
 20
255.3
 11
263.283
 21
255.823
  0
LINE
  8
0
 10
263.283
 20
255.823
 11
263.232
 21
256.344
  0
LINE
  8
0
 10
263.232
 20
256.344
 11
263.146
 21
256.861
  0
LINE
  8
0
 10
263.146
 20
256.861
 11
263.027
 21
257.371
  0
LINE
  8
0
 10
263.027
 20
257.371
 11
262.875
 21
257.872
  0
LINE
  8
0
 10
262.875
 20
257.872
 11
262.691
 21
258.361
  0
LINE
  8
0
 10
262.691
 20
258.361
 11
262.475
 21
258.838
  0
LINE
  8
0
 10
262.475
 20
258.838
 11
262.228
 21
259.3
  0
LINE
  8
0
 10
262.228
 20
259.3
 11
261.952
 21
259.745
  0
LINE
  8
0
 10
261.952
 20
259.745
 11
261.647
 21
260.17
  0
LINE
  8
0
 10
261.647
 20
260.17
 11
261.315
 21
260.575
  0
LINE
  8
0
 10
261.315
 20
260.575
 11
260.957
 21
260.957
  0
LINE
  8
0
 10
260.957
 20
260.957
 11
260.575
 21
261.315
  0
LINE
  8
0
 10
260.575
 20
261.315
 11
260.17
 21
261.647
  0
LINE
  8
0
 10
260.17
 20
261.647
 11
259.745
 21
261.952
  0
LINE
  8
0
 10
259.745
 20
261.952
 11
259.3
 21
262.228
  0
LINE
  8
0
 10
259.3
 20
262.228
 11
258.838
 21
262.475
  0
LINE
  8
0
 10
258.838
 20
262.475
 11
258.361
 21
262.691
  0
LINE
  8
0
 10
258.361
 20
262.691
 11
257.872
 21
262.875
  0
LINE
  8
0
 10
257.872
 20
262.875
 11
257.371
 21
263.027
  0
LINE
  8
0
 10
257.371
 20
263.027
 11
256.861
 21
263.146
  0
LINE
  8
0
 10
256.861
 20
263.146
 11
256.344
 21
263.232
  0
LINE
  8
0
 10
256.344
 20
263.232
 11
255.823
 21
263.283
  0
LINE
  8
0
 10
255.823
 20
263.283
 11
255.3
 21
263.3
  0
LINE
  8
0
 10
255.3
 20
263.3
 11
254.777
 21
263.283
  0
LINE
  8
0
 10
254.777
 20
263.283
 11
254.256
 21
263.232
  0
LINE
  8
0
 10
254.256
 20
263.232
 11
253.739
 21
263.146
  0
LINE
  8
0
 10
253.739
 20
263.146
 11
253.229
 21
263.027
  0
LINE
  8
0
 10
253.229
 20
263.027
 11
252.728
 21
262.875
  0
LINE
  8
0
 10
252.728
 20
262.875
 11
252.239
 21
262.691
  0
LINE
  8
0
 10
252.239
 20
262.691
 11
251.762
 21
262.475
  0
LINE
  8
0
 10
251.762
 20
262.475
 11
251.3
 21
262.228
  0
LINE
  8
0
 10
251.3
 20
262.228
 11
250.855
 21
261.952
  0
LINE
  8
0
 10
250.855
 20
261.952
 11
250.43
 21
261.647
  0
LINE
  8
0
 10
250.43
 20
261.647
 11
250.025
 21
261.315
  0
LINE
  8
0
 10
250.025
 20
261.315
 11
249.643
 21
260.957
  0
LINE
  8
0
 10
249.643
 20
260.957
 11
249.285
 21
260.575
  0
LINE
  8
0
 10
249.285
 20
260.575
 11
248.953
 21
260.17
  0
LINE
  8
0
 10
248.953
 20
260.17
 11
248.648
 21
259.745
  0
LINE
  8
0
 10
248.648
 20
259.745
 11
248.372
 21
259.3
  0
LINE
  8
0
 10
248.372
 20
259.3
 11
248.125
 21
258.838
  0
LINE
  8
0
 10
248.125
 20
258.838
 11
247.909
 21
258.361
  0
LINE
  8
0
 10
247.909
 20
258.361
 11
247.725
 21
257.872
  0
LINE
  8
0
 10
247.725
 20
257.872
 11
247.573
 21
257.371
  0
LINE
  8
0
 10
247.573
 20
257.371
 11
247.454
 21
256.861
  0
LINE
  8
0
 10
247.454
 20
256.861
 11
247.368
 21
256.344
  0
LINE
  8
0
 10
247.368
 20
256.344
 11
247.317
 21
255.823
  0
LINE
  8
0
 10
247.317
 20
255.823
 11
247.3
 21
255.3
  0
LINE
  8
0
 10
247.3
 20
255.3
 11
247.317
 21
254.777
  0
LINE
  8
0
 10
247.317
 20
254.777
 11
247.368
 21
254.256
  0
LINE
  8
0
 10
247.368
 20
254.256
 11
247.454
 21
253.739
  0
LINE
  8
0
 10
247.454
 20
253.739
 11
247.573
 21
253.229
  0
LINE
  8
0
 10
247.573
 20
253.229
 11
247.725
 21
252.728
  0
LINE
  8
0
 10
247.725
 20
252.728
 11
247.909
 21
252.239
  0
LINE
  8
0
 10
247.909
 20
252.239
 11
248.125
 21
251.762
  0
LINE
  8
0
 10
248.125
 20
251.762
 11
248.372
 21
251.3
  0
LINE
  8
0
 10
248.372
 20
251.3
 11
248.648
 21
250.855
  0
LINE
  8
0
 10
248.648
 20
250.855
 11
248.953
 21
250.43
  0
LINE
  8
0
 10
248.953
 20
250.43
 11
249.285
 21
250.025
  0
LINE
  8
0
 10
249.285
 20
250.025
 11
249.643
 21
249.643
  0
LINE
  8
0
 10
249.643
 20
249.643
 11
250.025
 21
249.285
  0
LINE
  8
0
 10
250.025
 20
249.285
 11
250.43
 21
248.953
  0
LINE
  8
0
 10
250.43
 20
248.953
 11
250.855
 21
248.648
  0
LINE
  8
0
 10
250.855
 20
248.648
 11
251.3
 21
248.372
  0
LINE
  8
0
 10
251.3
 20
248.372
 11
251.762
 21
248.125
  0
LINE
  8
0
 10
251.762
 20
248.125
 11
252.239
 21
247.909
  0
LINE
  8
0
 10
252.239
 20
247.909
 11
252.728
 21
247.725
  0
LINE
  8
0
 10
252.728
 20
247.725
 11
253.229
 21
247.573
  0
LINE
  8
0
 10
253.229
 20
247.573
 11
253.739
 21
247.454
  0
LINE
  8
0
 10
253.739
 20
247.454
 11
254.256
 21
247.368
  0
LINE
  8
0
 10
254.256
 20
247.368
 11
254.777
 21
247.317
  0
LINE
  8
0
 10
254.777
 20
247.317
 11
255.3
 21
247.3
  0
LINE
  8
0
 10
255.3
 20
247.3
 11
255.823
 21
247.317
  0
LINE
  8
0
 10
23.2232
 20
14.7171
 11
23.7442
 21
14.7684
  0
LINE
  8
0
 10
23.7442
 20
14.7684
 11
24.2607
 21
14.8537
  0
LINE
  8
0
 10
24.2607
 20
14.8537
 11
24.7705
 21
14.9726
  0
LINE
  8
0
 10
24.7705
 20
14.9726
 11
25.2715
 21
15.1246
  0
LINE
  8
0
 10
25.2715
 20
15.1246
 11
25.7615
 21
15.309
  0
LINE
  8
0
 10
25.7615
 20
15.309
 11
26.2383
 21
15.525
  0
LINE
  8
0
 10
26.2383
 20
15.525
 11
26.7
 21
15.7718
  0
LINE
  8
0
 10
26.7
 20
15.7718
 11
27.1446
 21
16.0482
  0
LINE
  8
0
 10
27.1446
 20
16.0482
 11
27.5701
 21
16.3532
  0
LINE
  8
0
 10
27.5701
 20
16.3532
 11
27.9748
 21
16.6853
  0
LINE
  8
0
 10
27.9748
 20
16.6853
 11
28.3568
 21
17.0431
  0
LINE
  8
0
 10
28.3568
 20
17.0431
 11
28.7147
 21
17.4252
  0
LINE
  8
0
 10
28.7147
 20
17.4252
 11
29.0468
 21
17.8299
  0
LINE
  8
0
 10
29.0468
 20
17.8299
 11
29.3517
 21
18.2554
  0
LINE
  8
0
 10
29.3517
 20
18.2554
 11
29.6282
 21
18.7
  0
LINE
  8
0
 10
29.6282
 20
18.7
 11
29.875
 21
19.1617
  0
LINE
  8
0
 10
29.875
 20
19.1617
 11
30.091
 21
19.6385
  0
LINE
  8
0
 10
30.091
 20
19.6385
 11
30.2754
 21
20.1285
  0
LINE
  8
0
 10
30.2754
 20
20.1285
 11
30.4274
 21
20.6294
  0
LINE
  8
0
 10
30.4274
 20
20.6294
 11
30.5463
 21
21.1393
  0
LINE
  8
0
 10
30.5463
 20
21.1393
 11
30.6315
 21
21.6558
  0
LINE
  8
0
 10
30.6315
 20
21.6558
 11
30.6829
 21
22.1768
  0
LINE
  8
0
 10
30.6829
 20
22.1768
 11
30.7
 21
22.7
  0
LINE
  8
0
 10
30.7
 20
22.7
 11
30.6829
 21
23.2232
  0
LINE
  8
0
 10
30.6829
 20
23.2232
 11
30.6315
 21
23.7442
  0
LINE
  8
0
 10
30.6315
 20
23.7442
 11
30.5463
 21
24.2607
  0
LINE
  8
0
 10
30.5463
 20
24.2607
 11
30.4274
 21
24.7705
  0
LINE
  8
0
 10
30.4274
 20
24.7705
 11
30.2754
 21
25.2715
  0
LINE
  8
0
 10
30.2754
 20
25.2715
 11
30.091
 21
25.7615
  0
LINE
  8
0
 10
30.091
 20
25.7615
 11
29.875
 21
26.2383
  0
LINE
  8
0
 10
29.875
 20
26.2383
 11
29.6282
 21
26.7
  0
LINE
  8
0
 10
29.6282
 20
26.7
 11
29.3517
 21
27.1446
  0
LINE
  8
0
 10
29.3517
 20
27.1446
 11
29.0468
 21
27.5701
  0
LINE
  8
0
 10
29.0468
 20
27.5701
 11
28.7147
 21
27.9748
  0
LINE
  8
0
 10
28.7147
 20
27.9748
 11
28.3568
 21
28.3568
  0
LINE
  8
0
 10
28.3568
 20
28.3568
 11
27.9748
 21
28.7147
  0
LINE
  8
0
 10
27.9748
 20
28.7147
 11
27.5701
 21
29.0468
  0
LINE
  8
0
 10
27.5701
 20
29.0468
 11
27.1446
 21
29.3517
  0
LINE
  8
0
 10
27.1446
 20
29.3517
 11
26.7
 21
29.6282
  0
LINE
  8
0
 10
26.7
 20
29.6282
 11
26.2383
 21
29.875
  0
LINE
  8
0
 10
26.2383
 20
29.875
 11
25.7615
 21
30.091
  0
LINE
  8
0
 10
25.7615
 20
30.091
 11
25.2715
 21
30.2754
  0
LINE
  8
0
 10
25.2715
 20
30.2754
 11
24.7705
 21
30.4274
  0
LINE
  8
0
 10
24.7705
 20
30.4274
 11
24.2607
 21
30.5463
  0
LINE
  8
0
 10
24.2607
 20
30.5463
 11
23.7442
 21
30.6315
  0
LINE
  8
0
 10
23.7442
 20
30.6315
 11
23.2232
 21
30.6829
  0
LINE
  8
0
 10
23.2232
 20
30.6829
 11
22.7
 21
30.7
  0
LINE
  8
0
 10
22.7
 20
30.7
 11
22.1768
 21
30.6829
  0
LINE
  8
0
 10
22.1768
 20
30.6829
 11
21.6558
 21
30.6315
  0
LINE
  8
0
 10
21.6558
 20
30.6315
 11
21.1393
 21
30.5463
  0
LINE
  8
0
 10
21.1393
 20
30.5463
 11
20.6294
 21
30.4274
  0
LINE
  8
0
 10
20.6294
 20
30.4274
 11
20.1285
 21
30.2754
  0
LINE
  8
0
 10
20.1285
 20
30.2754
 11
19.6385
 21
30.091
  0
LINE
  8
0
 10
19.6385
 20
30.091
 11
19.1617
 21
29.875
  0
LINE
  8
0
 10
19.1617
 20
29.875
 11
18.7
 21
29.6282
  0
LINE
  8
0
 10
18.7
 20
29.6282
 11
18.2554
 21
29.3517
  0
LINE
  8
0
 10
18.2554
 20
29.3517
 11
17.8299
 21
29.0468
  0
LINE
  8
0
 10
17.8299
 20
29.0468
 11
17.4252
 21
28.7147
  0
LINE
  8
0
 10
17.4252
 20
28.7147
 11
17.0431
 21
28.3568
  0
LINE
  8
0
 10
17.0431
 20
28.3568
 11
16.6853
 21
27.9748
  0
LINE
  8
0
 10
16.6853
 20
27.9748
 11
16.3532
 21
27.5701
  0
LINE
  8
0
 10
16.3532
 20
27.5701
 11
16.0482
 21
27.1446
  0
LINE
  8
0
 10
16.0482
 20
27.1446
 11
15.7718
 21
26.7
  0
LINE
  8
0
 10
15.7718
 20
26.7
 11
15.525
 21
26.2383
  0
LINE
  8
0
 10
15.525
 20
26.2383
 11
15.309
 21
25.7615
  0
LINE
  8
0
 10
15.309
 20
25.7615
 11
15.1246
 21
25.2715
  0
LINE
  8
0
 10
15.1246
 20
25.2715
 11
14.9726
 21
24.7705
  0
LINE
  8
0
 10
14.9726
 20
24.7705
 11
14.8537
 21
24.2607
  0
LINE
  8
0
 10
14.8537
 20
24.2607
 11
14.7684
 21
23.7442
  0
LINE
  8
0
 10
14.7684
 20
23.7442
 11
14.7171
 21
23.2232
  0
LINE
  8
0
 10
14.7171
 20
23.2232
 11
14.7
 21
22.7
  0
LINE
  8
0
 10
14.7
 20
22.7
 11
14.7171
 21
22.1768
  0
LINE
  8
0
 10
14.7171
 20
22.1768
 11
14.7684
 21
21.6558
  0
LINE
  8
0
 10
14.7684
 20
21.6558
 11
14.8537
 21
21.1393
  0
LINE
  8
0
 10
14.8537
 20
21.1393
 11
14.9726
 21
20.6294
  0
LINE
  8
0
 10
14.9726
 20
20.6294
 11
15.1246
 21
20.1285
  0
LINE
  8
0
 10
15.1246
 20
20.1285
 11
15.309
 21
19.6385
  0
LINE
  8
0
 10
15.309
 20
19.6385
 11
15.525
 21
19.1617
  0
LINE
  8
0
 10
15.525
 20
19.1617
 11
15.7718
 21
18.7
  0
LINE
  8
0
 10
15.7718
 20
18.7
 11
16.0482
 21
18.2554
  0
LINE
  8
0
 10
16.0482
 20
18.2554
 11
16.3532
 21
17.8299
  0
LINE
  8
0
 10
16.3532
 20
17.8299
 11
16.6853
 21
17.4252
  0
LINE
  8
0
 10
16.6853
 20
17.4252
 11
17.0431
 21
17.0431
  0
LINE
  8
0
 10
17.0431
 20
17.0431
 11
17.4252
 21
16.6853
  0
LINE
  8
0
 10
17.4252
 20
16.6853
 11
17.8299
 21
16.3532
  0
LINE
  8
0
 10
17.8299
 20
16.3532
 11
18.2554
 21
16.0482
  0
LINE
  8
0
 10
18.2554
 20
16.0482
 11
18.7
 21
15.7718
  0
LINE
  8
0
 10
18.7
 20
15.7718
 11
19.1617
 21
15.525
  0
LINE
  8
0
 10
19.1617
 20
15.525
 11
19.6385
 21
15.309
  0
LINE
  8
0
 10
19.6385
 20
15.309
 11
20.1285
 21
15.1246
  0
LINE
  8
0
 10
20.1285
 20
15.1246
 11
20.6294
 21
14.9726
  0
LINE
  8
0
 10
20.6294
 20
14.9726
 11
21.1393
 21
14.8537
  0
LINE
  8
0
 10
21.1393
 20
14.8537
 11
21.6558
 21
14.7684
  0
LINE
  8
0
 10
21.6558
 20
14.7684
 11
22.1768
 21
14.7171
  0
LINE
  8
0
 10
22.1768
 20
14.7171
 11
22.7
 21
14.7
  0
LINE
  8
0
 10
22.7
 20
14.7
 11
23.2232
 21
14.7171
  0
LINE
  8
0
 10
255.823
 20
14.7171
 11
256.344
 21
14.7684
  0
LINE
  8
0
 10
256.344
 20
14.7684
 11
256.861
 21
14.8537
  0
LINE
  8
0
 10
256.861
 20
14.8537
 11
257.371
 21
14.9726
  0
LINE
  8
0
 10
257.371
 20
14.9726
 11
257.872
 21
15.1246
  0
LINE
  8
0
 10
257.872
 20
15.1246
 11
258.361
 21
15.309
  0
LINE
  8
0
 10
258.361
 20
15.309
 11
258.838
 21
15.525
  0
LINE
  8
0
 10
258.838
 20
15.525
 11
259.3
 21
15.7718
  0
LINE
  8
0
 10
259.3
 20
15.7718
 11
259.745
 21
16.0482
  0
LINE
  8
0
 10
259.745
 20
16.0482
 11
260.17
 21
16.3532
  0
LINE
  8
0
 10
260.17
 20
16.3532
 11
260.575
 21
16.6853
  0
LINE
  8
0
 10
260.575
 20
16.6853
 11
260.957
 21
17.0431
  0
LINE
  8
0
 10
260.957
 20
17.0431
 11
261.315
 21
17.4252
  0
LINE
  8
0
 10
261.315
 20
17.4252
 11
261.647
 21
17.8299
  0
LINE
  8
0
 10
261.647
 20
17.8299
 11
261.952
 21
18.2554
  0
LINE
  8
0
 10
261.952
 20
18.2554
 11
262.228
 21
18.7
  0
LINE
  8
0
 10
262.228
 20
18.7
 11
262.475
 21
19.1617
  0
LINE
  8
0
 10
262.475
 20
19.1617
 11
262.691
 21
19.6385
  0
LINE
  8
0
 10
262.691
 20
19.6385
 11
262.875
 21
20.1285
  0
LINE
  8
0
 10
262.875
 20
20.1285
 11
263.027
 21
20.6294
  0
LINE
  8
0
 10
263.027
 20
20.6294
 11
263.146
 21
21.1393
  0
LINE
  8
0
 10
263.146
 20
21.1393
 11
263.232
 21
21.6558
  0
LINE
  8
0
 10
263.232
 20
21.6558
 11
263.283
 21
22.1768
  0
LINE
  8
0
 10
263.283
 20
22.1768
 11
263.3
 21
22.7
  0
LINE
  8
0
 10
263.3
 20
22.7
 11
263.283
 21
23.2232
  0
LINE
  8
0
 10
263.283
 20
23.2232
 11
263.232
 21
23.7442
  0
LINE
  8
0
 10
263.232
 20
23.7442
 11
263.146
 21
24.2607
  0
LINE
  8
0
 10
263.146
 20
24.2607
 11
263.027
 21
24.7705
  0
LINE
  8
0
 10
263.027
 20
24.7705
 11
262.875
 21
25.2715
  0
LINE
  8
0
 10
262.875
 20
25.2715
 11
262.691
 21
25.7615
  0
LINE
  8
0
 10
262.691
 20
25.7615
 11
262.475
 21
26.2383
  0
LINE
  8
0
 10
262.475
 20
26.2383
 11
262.228
 21
26.7
  0
LINE
  8
0
 10
262.228
 20
26.7
 11
261.952
 21
27.1446
  0
LINE
  8
0
 10
261.952
 20
27.1446
 11
261.647
 21
27.5701
  0
LINE
  8
0
 10
261.647
 20
27.5701
 11
261.315
 21
27.9748
  0
LINE
  8
0
 10
261.315
 20
27.9748
 11
260.957
 21
28.3568
  0
LINE
  8
0
 10
260.957
 20
28.3568
 11
260.575
 21
28.7147
  0
LINE
  8
0
 10
260.575
 20
28.7147
 11
260.17
 21
29.0468
  0
LINE
  8
0
 10
260.17
 20
29.0468
 11
259.745
 21
29.3517
  0
LINE
  8
0
 10
259.745
 20
29.3517
 11
259.3
 21
29.6282
  0
LINE
  8
0
 10
259.3
 20
29.6282
 11
258.838
 21
29.875
  0
LINE
  8
0
 10
258.838
 20
29.875
 11
258.361
 21
30.091
  0
LINE
  8
0
 10
258.361
 20
30.091
 11
257.872
 21
30.2754
  0
LINE
  8
0
 10
257.872
 20
30.2754
 11
257.371
 21
30.4274
  0
LINE
  8
0
 10
257.371
 20
30.4274
 11
256.861
 21
30.5463
  0
LINE
  8
0
 10
256.861
 20
30.5463
 11
256.344
 21
30.6315
  0
LINE
  8
0
 10
256.344
 20
30.6315
 11
255.823
 21
30.6829
  0
LINE
  8
0
 10
255.823
 20
30.6829
 11
255.3
 21
30.7
  0
LINE
  8
0
 10
255.3
 20
30.7
 11
254.777
 21
30.6829
  0
LINE
  8
0
 10
254.777
 20
30.6829
 11
254.256
 21
30.6315
  0
LINE
  8
0
 10
254.256
 20
30.6315
 11
253.739
 21
30.5463
  0
LINE
  8
0
 10
253.739
 20
30.5463
 11
253.229
 21
30.4274
  0
LINE
  8
0
 10
253.229
 20
30.4274
 11
252.728
 21
30.2754
  0
LINE
  8
0
 10
252.728
 20
30.2754
 11
252.239
 21
30.091
  0
LINE
  8
0
 10
252.239
 20
30.091
 11
251.762
 21
29.875
  0
LINE
  8
0
 10
251.762
 20
29.875
 11
251.3
 21
29.6282
  0
LINE
  8
0
 10
251.3
 20
29.6282
 11
250.855
 21
29.3517
  0
LINE
  8
0
 10
250.855
 20
29.3517
 11
250.43
 21
29.0468
  0
LINE
  8
0
 10
250.43
 20
29.0468
 11
250.025
 21
28.7147
  0
LINE
  8
0
 10
250.025
 20
28.7147
 11
249.643
 21
28.3568
  0
LINE
  8
0
 10
249.643
 20
28.3568
 11
249.285
 21
27.9748
  0
LINE
  8
0
 10
249.285
 20
27.9748
 11
248.953
 21
27.5701
  0
LINE
  8
0
 10
248.953
 20
27.5701
 11
248.648
 21
27.1446
  0
LINE
  8
0
 10
248.648
 20
27.1446
 11
248.372
 21
26.7
  0
LINE
  8
0
 10
248.372
 20
26.7
 11
248.125
 21
26.2383
  0
LINE
  8
0
 10
248.125
 20
26.2383
 11
247.909
 21
25.7615
  0
LINE
  8
0
 10
247.909
 20
25.7615
 11
247.725
 21
25.2715
  0
LINE
  8
0
 10
247.725
 20
25.2715
 11
247.573
 21
24.7705
  0
LINE
  8
0
 10
247.573
 20
24.7705
 11
247.454
 21
24.2607
  0
LINE
  8
0
 10
247.454
 20
24.2607
 11
247.368
 21
23.7442
  0
LINE
  8
0
 10
247.368
 20
23.7442
 11
247.317
 21
23.2232
  0
LINE
  8
0
 10
247.317
 20
23.2232
 11
247.3
 21
22.7
  0
LINE
  8
0
 10
247.3
 20
22.7
 11
247.317
 21
22.1768
  0
LINE
  8
0
 10
247.317
 20
22.1768
 11
247.368
 21
21.6558
  0
LINE
  8
0
 10
247.368
 20
21.6558
 11
247.454
 21
21.1393
  0
LINE
  8
0
 10
247.454
 20
21.1393
 11
247.573
 21
20.6294
  0
LINE
  8
0
 10
247.573
 20
20.6294
 11
247.725
 21
20.1285
  0
LINE
  8
0
 10
247.725
 20
20.1285
 11
247.909
 21
19.6385
  0
LINE
  8
0
 10
247.909
 20
19.6385
 11
248.125
 21
19.1617
  0
LINE
  8
0
 10
248.125
 20
19.1617
 11
248.372
 21
18.7
  0
LINE
  8
0
 10
248.372
 20
18.7
 11
248.648
 21
18.2554
  0
LINE
  8
0
 10
248.648
 20
18.2554
 11
248.953
 21
17.8299
  0
LINE
  8
0
 10
248.953
 20
17.8299
 11
249.285
 21
17.4252
  0
LINE
  8
0
 10
249.285
 20
17.4252
 11
249.643
 21
17.0431
  0
LINE
  8
0
 10
249.643
 20
17.0431
 11
250.025
 21
16.6853
  0
LINE
  8
0
 10
250.025
 20
16.6853
 11
250.43
 21
16.3532
  0
LINE
  8
0
 10
250.43
 20
16.3532
 11
250.855
 21
16.0482
  0
LINE
  8
0
 10
250.855
 20
16.0482
 11
251.3
 21
15.7718
  0
LINE
  8
0
 10
251.3
 20
15.7718
 11
251.762
 21
15.525
  0
LINE
  8
0
 10
251.762
 20
15.525
 11
252.239
 21
15.309
  0
LINE
  8
0
 10
252.239
 20
15.309
 11
252.728
 21
15.1246
  0
LINE
  8
0
 10
252.728
 20
15.1246
 11
253.229
 21
14.9726
  0
LINE
  8
0
 10
253.229
 20
14.9726
 11
253.739
 21
14.8537
  0
LINE
  8
0
 10
253.739
 20
14.8537
 11
254.256
 21
14.7684
  0
LINE
  8
0
 10
254.256
 20
14.7684
 11
254.777
 21
14.7171
  0
LINE
  8
0
 10
254.777
 20
14.7171
 11
255.3
 21
14.7
  0
LINE
  8
0
 10
255.3
 20
14.7
 11
255.823
 21
14.7171
  0
ENDSEC
  0
SECTION
  2
OBJECTS
  0
DICTIONARY
  0
ENDSEC
  0
EOF
