  0
SECTION
  2
BLOCKS
  0
ENDSEC
  0
SECTION
  2
ENTITIES
  0
LINE
  8
0
 10
23.0597
 20
249.812
 11
23.4179
 21
249.847
  0
LINE
  8
0
 10
23.4179
 20
249.847
 11
23.773
 21
249.906
  0
LINE
  8
0
 10
23.773
 20
249.906
 11
24.1235
 21
249.987
  0
LINE
  8
0
 10
24.1235
 20
249.987
 11
24.4679
 21
250.092
  0
LINE
  8
0
 10
24.4679
 20
250.092
 11
24.8047
 21
250.219
  0
LINE
  8
0
 10
24.8047
 20
250.219
 11
25.1326
 21
250.367
  0
LINE
  8
0
 10
25.1326
 20
250.367
 11
25.45
 21
250.537
  0
LINE
  8
0
 10
25.45
 20
250.537
 11
25.7556
 21
250.727
  0
LINE
  8
0
 10
25.7556
 20
250.727
 11
26.0482
 21
250.937
  0
LINE
  8
0
 10
26.0482
 20
250.937
 11
26.3264
 21
251.165
  0
LINE
  8
0
 10
26.3264
 20
251.165
 11
26.5891
 21
251.411
  0
LINE
  8
0
 10
26.5891
 20
251.411
 11
26.8351
 21
251.674
  0
LINE
  8
0
 10
26.8351
 20
251.674
 11
27.0634
 21
251.952
  0
LINE
  8
0
 10
27.0634
 20
251.952
 11
27.2731
 21
252.244
  0
LINE
  8
0
 10
27.2731
 20
252.244
 11
27.4631
 21
252.55
  0
LINE
  8
0
 10
27.4631
 20
252.55
 11
27.6328
 21
252.867
  0
LINE
  8
0
 10
27.6328
 20
252.867
 11
27.7813
 21
253.195
  0
LINE
  8
0
 10
27.7813
 20
253.195
 11
27.9081
 21
253.532
  0
LINE
  8
0
 10
27.9081
 20
253.532
 11
28.0126
 21
253.876
  0
LINE
  8
0
 10
28.0126
 20
253.876
 11
28.0943
 21
254.227
  0
LINE
  8
0
 10
28.0943
 20
254.227
 11
28.1529
 21
254.582
  0
LINE
  8
0
 10
28.1529
 20
254.582
 11
28.1882
 21
254.94
  0
LINE
  8
0
 10
28.1882
 20
254.94
 11
28.2
 21
255.3
  0
LINE
  8
0
 10
28.2
 20
255.3
 11
28.1882
 21
255.66
  0
LINE
  8
0
 10
28.1882
 20
255.66
 11
28.1529
 21
256.018
  0
LINE
  8
0
 10
28.1529
 20
256.018
 11
28.0943
 21
256.373
  0
LINE
  8
0
 10
28.0943
 20
256.373
 11
28.0126
 21
256.723
  0
LINE
  8
0
 10
28.0126
 20
256.723
 11
27.9081
 21
257.068
  0
LINE
  8
0
 10
27.9081
 20
257.068
 11
27.7813
 21
257.405
  0
LINE
  8
0
 10
27.7813
 20
257.405
 11
27.6328
 21
257.733
  0
LINE
  8
0
 10
27.6328
 20
257.733
 11
27.4631
 21
258.05
  0
LINE
  8
0
 10
27.4631
 20
258.05
 11
27.2731
 21
258.356
  0
LINE
  8
0
 10
27.2731
 20
258.356
 11
27.0634
 21
258.648
  0
LINE
  8
0
 10
27.0634
 20
258.648
 11
26.8351
 21
258.926
  0
LINE
  8
0
 10
26.8351
 20
258.926
 11
26.5891
 21
259.189
  0
LINE
  8
0
 10
26.5891
 20
259.189
 11
26.3264
 21
259.435
  0
LINE
  8
0
 10
26.3264
 20
259.435
 11
26.0482
 21
259.663
  0
LINE
  8
0
 10
26.0482
 20
259.663
 11
25.7556
 21
259.873
  0
LINE
  8
0
 10
25.7556
 20
259.873
 11
25.45
 21
260.063
  0
LINE
  8
0
 10
25.45
 20
260.063
 11
25.1326
 21
260.233
  0
LINE
  8
0
 10
25.1326
 20
260.233
 11
24.8047
 21
260.381
  0
LINE
  8
0
 10
24.8047
 20
260.381
 11
24.4679
 21
260.508
  0
LINE
  8
0
 10
24.4679
 20
260.508
 11
24.1235
 21
260.613
  0
LINE
  8
0
 10
24.1235
 20
260.613
 11
23.773
 21
260.694
  0
LINE
  8
0
 10
23.773
 20
260.694
 11
23.4179
 21
260.753
  0
LINE
  8
0
 10
23.4179
 20
260.753
 11
23.0597
 21
260.788
  0
LINE
  8
0
 10
23.0597
 20
260.788
 11
22.7
 21
260.8
  0
LINE
  8
0
 10
22.7
 20
260.8
 11
22.3403
 21
260.788
  0
LINE
  8
0
 10
22.3403
 20
260.788
 11
21.9821
 21
260.753
  0
LINE
  8
0
 10
21.9821
 20
260.753
 11
21.627
 21
260.694
  0
LINE
  8
0
 10
21.627
 20
260.694
 11
21.2765
 21
260.613
  0
LINE
  8
0
 10
21.2765
 20
260.613
 11
20.9321
 21
260.508
  0
LINE
  8
0
 10
20.9321
 20
260.508
 11
20.5952
 21
260.381
  0
LINE
  8
0
 10
20.5952
 20
260.381
 11
20.2674
 21
260.233
  0
LINE
  8
0
 10
20.2674
 20
260.233
 11
19.95
 21
260.063
  0
LINE
  8
0
 10
19.95
 20
260.063
 11
19.6444
 21
259.873
  0
LINE
  8
0
 10
19.6444
 20
259.873
 11
19.3518
 21
259.663
  0
LINE
  8
0
 10
19.3518
 20
259.663
 11
19.0736
 21
259.435
  0
LINE
  8
0
 10
19.0736
 20
259.435
 11
18.8109
 21
259.189
  0
LINE
  8
0
 10
18.8109
 20
259.189
 11
18.5649
 21
258.926
  0
LINE
  8
0
 10
18.5649
 20
258.926
 11
18.3365
 21
258.648
  0
LINE
  8
0
 10
18.3365
 20
258.648
 11
18.1269
 21
258.356
  0
LINE
  8
0
 10
18.1269
 20
258.356
 11
17.9369
 21
258.05
  0
LINE
  8
0
 10
17.9369
 20
258.05
 11
17.7672
 21
257.733
  0
LINE
  8
0
 10
17.7672
 20
257.733
 11
17.6187
 21
257.405
  0
LINE
  8
0
 10
17.6187
 20
257.405
 11
17.4919
 21
257.068
  0
LINE
  8
0
 10
17.4919
 20
257.068
 11
17.3874
 21
256.723
  0
LINE
  8
0
 10
17.3874
 20
256.723
 11
17.3057
 21
256.373
  0
LINE
  8
0
 10
17.3057
 20
256.373
 11
17.247
 21
256.018
  0
LINE
  8
0
 10
17.247
 20
256.018
 11
17.2118
 21
255.66
  0
LINE
  8
0
 10
17.2118
 20
255.66
 11
17.2
 21
255.3
  0
LINE
  8
0
 10
17.2
 20
255.3
 11
17.2118
 21
254.94
  0
LINE
  8
0
 10
17.2118
 20
254.94
 11
17.247
 21
254.582
  0
LINE
  8
0
 10
17.247
 20
254.582
 11
17.3057
 21
254.227
  0
LINE
  8
0
 10
17.3057
 20
254.227
 11
17.3874
 21
253.876
  0
LINE
  8
0
 10
17.3874
 20
253.876
 11
17.4919
 21
253.532
  0
LINE
  8
0
 10
17.4919
 20
253.532
 11
17.6187
 21
253.195
  0
LINE
  8
0
 10
17.6187
 20
253.195
 11
17.7672
 21
252.867
  0
LINE
  8
0
 10
17.7672
 20
252.867
 11
17.9369
 21
252.55
  0
LINE
  8
0
 10
17.9369
 20
252.55
 11
18.1269
 21
252.244
  0
LINE
  8
0
 10
18.1269
 20
252.244
 11
18.3365
 21
251.952
  0
LINE
  8
0
 10
18.3365
 20
251.952
 11
18.5649
 21
251.674
  0
LINE
  8
0
 10
18.5649
 20
251.674
 11
18.8109
 21
251.411
  0
LINE
  8
0
 10
18.8109
 20
251.411
 11
19.0736
 21
251.165
  0
LINE
  8
0
 10
19.0736
 20
251.165
 11
19.3518
 21
250.937
  0
LINE
  8
0
 10
19.3518
 20
250.937
 11
19.6444
 21
250.727
  0
LINE
  8
0
 10
19.6444
 20
250.727
 11
19.95
 21
250.537
  0
LINE
  8
0
 10
19.95
 20
250.537
 11
20.2674
 21
250.367
  0
LINE
  8
0
 10
20.2674
 20
250.367
 11
20.5952
 21
250.219
  0
LINE
  8
0
 10
20.5952
 20
250.219
 11
20.9321
 21
250.092
  0
LINE
  8
0
 10
20.9321
 20
250.092
 11
21.2765
 21
249.987
  0
LINE
  8
0
 10
21.2765
 20
249.987
 11
21.627
 21
249.906
  0
LINE
  8
0
 10
21.627
 20
249.906
 11
21.9821
 21
249.847
  0
LINE
  8
0
 10
21.9821
 20
249.847
 11
22.3403
 21
249.812
  0
LINE
  8
0
 10
22.3403
 20
249.812
 11
22.7
 21
249.8
  0
LINE
  8
0
 10
22.7
 20
249.8
 11
23.0597
 21
249.812
  0
LINE
  8
0
 10
255.66
 20
249.812
 11
256.018
 21
249.847
  0
LINE
  8
0
 10
256.018
 20
249.847
 11
256.373
 21
249.906
  0
LINE
  8
0
 10
256.373
 20
249.906
 11
256.723
 21
249.987
  0
LINE
  8
0
 10
256.723
 20
249.987
 11
257.068
 21
250.092
  0
LINE
  8
0
 10
257.068
 20
250.092
 11
257.405
 21
250.219
  0
LINE
  8
0
 10
257.405
 20
250.219
 11
257.733
 21
250.367
  0
LINE
  8
0
 10
257.733
 20
250.367
 11
258.05
 21
250.537
  0
LINE
  8
0
 10
258.05
 20
250.537
 11
258.356
 21
250.727
  0
LINE
  8
0
 10
258.356
 20
250.727
 11
258.648
 21
250.937
  0
LINE
  8
0
 10
258.648
 20
250.937
 11
258.926
 21
251.165
  0
LINE
  8
0
 10
258.926
 20
251.165
 11
259.189
 21
251.411
  0
LINE
  8
0
 10
259.189
 20
251.411
 11
259.435
 21
251.674
  0
LINE
  8
0
 10
259.435
 20
251.674
 11
259.663
 21
251.952
  0
LINE
  8
0
 10
259.663
 20
251.952
 11
259.873
 21
252.244
  0
LINE
  8
0
 10
259.873
 20
252.244
 11
260.063
 21
252.55
  0
LINE
  8
0
 10
260.063
 20
252.55
 11
260.233
 21
252.867
  0
LINE
  8
0
 10
260.233
 20
252.867
 11
260.381
 21
253.195
  0
LINE
  8
0
 10
260.381
 20
253.195
 11
260.508
 21
253.532
  0
LINE
  8
0
 10
260.508
 20
253.532
 11
260.613
 21
253.876
  0
LINE
  8
0
 10
260.613
 20
253.876
 11
260.694
 21
254.227
  0
LINE
  8
0
 10
260.694
 20
254.227
 11
260.753
 21
254.582
  0
LINE
  8
0
 10
260.753
 20
254.582
 11
260.788
 21
254.94
  0
LINE
  8
0
 10
260.788
 20
254.94
 11
260.8
 21
255.3
  0
LINE
  8
0
 10
260.8
 20
255.3
 11
260.788
 21
255.66
  0
LINE
  8
0
 10
260.788
 20
255.66
 11
260.753
 21
256.018
  0
LINE
  8
0
 10
260.753
 20
256.018
 11
260.694
 21
256.373
  0
LINE
  8
0
 10
260.694
 20
256.373
 11
260.613
 21
256.723
  0
LINE
  8
0
 10
260.613
 20
256.723
 11
260.508
 21
257.068
  0
LINE
  8
0
 10
260.508
 20
257.068
 11
260.381
 21
257.405
  0
LINE
  8
0
 10
260.381
 20
257.405
 11
260.233
 21
257.733
  0
LINE
  8
0
 10
260.233
 20
257.733
 11
260.063
 21
258.05
  0
LINE
  8
0
 10
260.063
 20
258.05
 11
259.873
 21
258.356
  0
LINE
  8
0
 10
259.873
 20
258.356
 11
259.663
 21
258.648
  0
LINE
  8
0
 10
259.663
 20
258.648
 11
259.435
 21
258.926
  0
LINE
  8
0
 10
259.435
 20
258.926
 11
259.189
 21
259.189
  0
LINE
  8
0
 10
259.189
 20
259.189
 11
258.926
 21
259.435
  0
LINE
  8
0
 10
258.926
 20
259.435
 11
258.648
 21
259.663
  0
LINE
  8
0
 10
258.648
 20
259.663
 11
258.356
 21
259.873
  0
LINE
  8
0
 10
258.356
 20
259.873
 11
258.05
 21
260.063
  0
LINE
  8
0
 10
258.05
 20
260.063
 11
257.733
 21
260.233
  0
LINE
  8
0
 10
257.733
 20
260.233
 11
257.405
 21
260.381
  0
LINE
  8
0
 10
257.405
 20
260.381
 11
257.068
 21
260.508
  0
LINE
  8
0
 10
257.068
 20
260.508
 11
256.723
 21
260.613
  0
LINE
  8
0
 10
256.723
 20
260.613
 11
256.373
 21
260.694
  0
LINE
  8
0
 10
256.373
 20
260.694
 11
256.018
 21
260.753
  0
LINE
  8
0
 10
256.018
 20
260.753
 11
255.66
 21
260.788
  0
LINE
  8
0
 10
255.66
 20
260.788
 11
255.3
 21
260.8
  0
LINE
  8
0
 10
255.3
 20
260.8
 11
254.94
 21
260.788
  0
LINE
  8
0
 10
254.94
 20
260.788
 11
254.582
 21
260.753
  0
LINE
  8
0
 10
254.582
 20
260.753
 11
254.227
 21
260.694
  0
LINE
  8
0
 10
254.227
 20
260.694
 11
253.876
 21
260.613
  0
LINE
  8
0
 10
253.876
 20
260.613
 11
253.532
 21
260.508
  0
LINE
  8
0
 10
253.532
 20
260.508
 11
253.195
 21
260.381
  0
LINE
  8
0
 10
253.195
 20
260.381
 11
252.867
 21
260.233
  0
LINE
  8
0
 10
252.867
 20
260.233
 11
252.55
 21
260.063
  0
LINE
  8
0
 10
252.55
 20
260.063
 11
252.244
 21
259.873
  0
LINE
  8
0
 10
252.244
 20
259.873
 11
251.952
 21
259.663
  0
LINE
  8
0
 10
251.952
 20
259.663
 11
251.674
 21
259.435
  0
LINE
  8
0
 10
251.674
 20
259.435
 11
251.411
 21
259.189
  0
LINE
  8
0
 10
251.411
 20
259.189
 11
251.165
 21
258.926
  0
LINE
  8
0
 10
251.165
 20
258.926
 11
250.937
 21
258.648
  0
LINE
  8
0
 10
250.937
 20
258.648
 11
250.727
 21
258.356
  0
LINE
  8
0
 10
250.727
 20
258.356
 11
250.537
 21
258.05
  0
LINE
  8
0
 10
250.537
 20
258.05
 11
250.367
 21
257.733
  0
LINE
  8
0
 10
250.367
 20
257.733
 11
250.219
 21
257.405
  0
LINE
  8
0
 10
250.219
 20
257.405
 11
250.092
 21
257.068
  0
LINE
  8
0
 10
250.092
 20
257.068
 11
249.987
 21
256.723
  0
LINE
  8
0
 10
249.987
 20
256.723
 11
249.906
 21
256.373
  0
LINE
  8
0
 10
249.906
 20
256.373
 11
249.847
 21
256.018
  0
LINE
  8
0
 10
249.847
 20
256.018
 11
249.812
 21
255.66
  0
LINE
  8
0
 10
249.812
 20
255.66
 11
249.8
 21
255.3
  0
LINE
  8
0
 10
249.8
 20
255.3
 11
249.812
 21
254.94
  0
LINE
  8
0
 10
249.812
 20
254.94
 11
249.847
 21
254.582
  0
LINE
  8
0
 10
249.847
 20
254.582
 11
249.906
 21
254.227
  0
LINE
  8
0
 10
249.906
 20
254.227
 11
249.987
 21
253.876
  0
LINE
  8
0
 10
249.987
 20
253.876
 11
250.092
 21
253.532
  0
LINE
  8
0
 10
250.092
 20
253.532
 11
250.219
 21
253.195
  0
LINE
  8
0
 10
250.219
 20
253.195
 11
250.367
 21
252.867
  0
LINE
  8
0
 10
250.367
 20
252.867
 11
250.537
 21
252.55
  0
LINE
  8
0
 10
250.537
 20
252.55
 11
250.727
 21
252.244
  0
LINE
  8
0
 10
250.727
 20
252.244
 11
250.937
 21
251.952
  0
LINE
  8
0
 10
250.937
 20
251.952
 11
251.165
 21
251.674
  0
LINE
  8
0
 10
251.165
 20
251.674
 11
251.411
 21
251.411
  0
LINE
  8
0
 10
251.411
 20
251.411
 11
251.674
 21
251.165
  0
LINE
  8
0
 10
251.674
 20
251.165
 11
251.952
 21
250.937
  0
LINE
  8
0
 10
251.952
 20
250.937
 11
252.244
 21
250.727
  0
LINE
  8
0
 10
252.244
 20
250.727
 11
252.55
 21
250.537
  0
LINE
  8
0
 10
252.55
 20
250.537
 11
252.867
 21
250.367
  0
LINE
  8
0
 10
252.867
 20
250.367
 11
253.195
 21
250.219
  0
LINE
  8
0
 10
253.195
 20
250.219
 11
253.532
 21
250.092
  0
LINE
  8
0
 10
253.532
 20
250.092
 11
253.876
 21
249.987
  0
LINE
  8
0
 10
253.876
 20
249.987
 11
254.227
 21
249.906
  0
LINE
  8
0
 10
254.227
 20
249.906
 11
254.582
 21
249.847
  0
LINE
  8
0
 10
254.582
 20
249.847
 11
254.94
 21
249.812
  0
LINE
  8
0
 10
254.94
 20
249.812
 11
255.3
 21
249.8
  0
LINE
  8
0
 10
255.3
 20
249.8
 11
255.66
 21
249.812
  0
LINE
  8
0
 10
23.0597
 20
17.2118
 11
23.4179
 21
17.247
  0
LINE
  8
0
 10
23.4179
 20
17.247
 11
23.773
 21
17.3057
  0
LINE
  8
0
 10
23.773
 20
17.3057
 11
24.1235
 21
17.3874
  0
LINE
  8
0
 10
24.1235
 20
17.3874
 11
24.4679
 21
17.4919
  0
LINE
  8
0
 10
24.4679
 20
17.4919
 11
24.8047
 21
17.6187
  0
LINE
  8
0
 10
24.8047
 20
17.6187
 11
25.1326
 21
17.7672
  0
LINE
  8
0
 10
25.1326
 20
17.7672
 11
25.45
 21
17.9369
  0
LINE
  8
0
 10
25.45
 20
17.9369
 11
25.7556
 21
18.1269
  0
LINE
  8
0
 10
25.7556
 20
18.1269
 11
26.0482
 21
18.3365
  0
LINE
  8
0
 10
26.0482
 20
18.3365
 11
26.3264
 21
18.5649
  0
LINE
  8
0
 10
26.3264
 20
18.5649
 11
26.5891
 21
18.8109
  0
LINE
  8
0
 10
26.5891
 20
18.8109
 11
26.8351
 21
19.0736
  0
LINE
  8
0
 10
26.8351
 20
19.0736
 11
27.0634
 21
19.3518
  0
LINE
  8
0
 10
27.0634
 20
19.3518
 11
27.2731
 21
19.6444
  0
LINE
  8
0
 10
27.2731
 20
19.6444
 11
27.4631
 21
19.95
  0
LINE
  8
0
 10
27.4631
 20
19.95
 11
27.6328
 21
20.2674
  0
LINE
  8
0
 10
27.6328
 20
20.2674
 11
27.7813
 21
20.5952
  0
LINE
  8
0
 10
27.7813
 20
20.5952
 11
27.9081
 21
20.9321
  0
LINE
  8
0
 10
27.9081
 20
20.9321
 11
28.0126
 21
21.2765
  0
LINE
  8
0
 10
28.0126
 20
21.2765
 11
28.0943
 21
21.627
  0
LINE
  8
0
 10
28.0943
 20
21.627
 11
28.1529
 21
21.9821
  0
LINE
  8
0
 10
28.1529
 20
21.9821
 11
28.1882
 21
22.3403
  0
LINE
  8
0
 10
28.1882
 20
22.3403
 11
28.2
 21
22.7
  0
LINE
  8
0
 10
28.2
 20
22.7
 11
28.1882
 21
23.0597
  0
LINE
  8
0
 10
28.1882
 20
23.0597
 11
28.1529
 21
23.4179
  0
LINE
  8
0
 10
28.1529
 20
23.4179
 11
28.0943
 21
23.773
  0
LINE
  8
0
 10
28.0943
 20
23.773
 11
28.0126
 21
24.1235
  0
LINE
  8
0
 10
28.0126
 20
24.1235
 11
27.9081
 21
24.4679
  0
LINE
  8
0
 10
27.9081
 20
24.4679
 11
27.7813
 21
24.8047
  0
LINE
  8
0
 10
27.7813
 20
24.8047
 11
27.6328
 21
25.1326
  0
LINE
  8
0
 10
27.6328
 20
25.1326
 11
27.4631
 21
25.45
  0
LINE
  8
0
 10
27.4631
 20
25.45
 11
27.2731
 21
25.7556
  0
LINE
  8
0
 10
27.2731
 20
25.7556
 11
27.0634
 21
26.0482
  0
LINE
  8
0
 10
27.0634
 20
26.0482
 11
26.8351
 21
26.3264
  0
LINE
  8
0
 10
26.8351
 20
26.3264
 11
26.5891
 21
26.5891
  0
LINE
  8
0
 10
26.5891
 20
26.5891
 11
26.3264
 21
26.8351
  0
LINE
  8
0
 10
26.3264
 20
26.8351
 11
26.0482
 21
27.0634
  0
LINE
  8
0
 10
26.0482
 20
27.0634
 11
25.7556
 21
27.2731
  0
LINE
  8
0
 10
25.7556
 20
27.2731
 11
25.45
 21
27.4631
  0
LINE
  8
0
 10
25.45
 20
27.4631
 11
25.1326
 21
27.6328
  0
LINE
  8
0
 10
25.1326
 20
27.6328
 11
24.8047
 21
27.7813
  0
LINE
  8
0
 10
24.8047
 20
27.7813
 11
24.4679
 21
27.9081
  0
LINE
  8
0
 10
24.4679
 20
27.9081
 11
24.1235
 21
28.0126
  0
LINE
  8
0
 10
24.1235
 20
28.0126
 11
23.773
 21
28.0943
  0
LINE
  8
0
 10
23.773
 20
28.0943
 11
23.4179
 21
28.1529
  0
LINE
  8
0
 10
23.4179
 20
28.1529
 11
23.0597
 21
28.1882
  0
LINE
  8
0
 10
23.0597
 20
28.1882
 11
22.7
 21
28.2
  0
LINE
  8
0
 10
22.7
 20
28.2
 11
22.3403
 21
28.1882
  0
LINE
  8
0
 10
22.3403
 20
28.1882
 11
21.9821
 21
28.1529
  0
LINE
  8
0
 10
21.9821
 20
28.1529
 11
21.627
 21
28.0943
  0
LINE
  8
0
 10
21.627
 20
28.0943
 11
21.2765
 21
28.0126
  0
LINE
  8
0
 10
21.2765
 20
28.0126
 11
20.9321
 21
27.9081
  0
LINE
  8
0
 10
20.9321
 20
27.9081
 11
20.5952
 21
27.7813
  0
LINE
  8
0
 10
20.5952
 20
27.7813
 11
20.2674
 21
27.6328
  0
LINE
  8
0
 10
20.2674
 20
27.6328
 11
19.95
 21
27.4631
  0
LINE
  8
0
 10
19.95
 20
27.4631
 11
19.6444
 21
27.2731
  0
LINE
  8
0
 10
19.6444
 20
27.2731
 11
19.3518
 21
27.0634
  0
LINE
  8
0
 10
19.3518
 20
27.0634
 11
19.0736
 21
26.8351
  0
LINE
  8
0
 10
19.0736
 20
26.8351
 11
18.8109
 21
26.5891
  0
LINE
  8
0
 10
18.8109
 20
26.5891
 11
18.5649
 21
26.3264
  0
LINE
  8
0
 10
18.5649
 20
26.3264
 11
18.3365
 21
26.0482
  0
LINE
  8
0
 10
18.3365
 20
26.0482
 11
18.1269
 21
25.7556
  0
LINE
  8
0
 10
18.1269
 20
25.7556
 11
17.9369
 21
25.45
  0
LINE
  8
0
 10
17.9369
 20
25.45
 11
17.7672
 21
25.1326
  0
LINE
  8
0
 10
17.7672
 20
25.1326
 11
17.6187
 21
24.8047
  0
LINE
  8
0
 10
17.6187
 20
24.8047
 11
17.4919
 21
24.4679
  0
LINE
  8
0
 10
17.4919
 20
24.4679
 11
17.3874
 21
24.1235
  0
LINE
  8
0
 10
17.3874
 20
24.1235
 11
17.3057
 21
23.773
  0
LINE
  8
0
 10
17.3057
 20
23.773
 11
17.247
 21
23.4179
  0
LINE
  8
0
 10
17.247
 20
23.4179
 11
17.2118
 21
23.0597
  0
LINE
  8
0
 10
17.2118
 20
23.0597
 11
17.2
 21
22.7
  0
LINE
  8
0
 10
17.2
 20
22.7
 11
17.2118
 21
22.3403
  0
LINE
  8
0
 10
17.2118
 20
22.3403
 11
17.247
 21
21.9821
  0
LINE
  8
0
 10
17.247
 20
21.9821
 11
17.3057
 21
21.627
  0
LINE
  8
0
 10
17.3057
 20
21.627
 11
17.3874
 21
21.2765
  0
LINE
  8
0
 10
17.3874
 20
21.2765
 11
17.4919
 21
20.9321
  0
LINE
  8
0
 10
17.4919
 20
20.9321
 11
17.6187
 21
20.5952
  0
LINE
  8
0
 10
17.6187
 20
20.5952
 11
17.7672
 21
20.2674
  0
LINE
  8
0
 10
17.7672
 20
20.2674
 11
17.9369
 21
19.95
  0
LINE
  8
0
 10
17.9369
 20
19.95
 11
18.1269
 21
19.6444
  0
LINE
  8
0
 10
18.1269
 20
19.6444
 11
18.3365
 21
19.3518
  0
LINE
  8
0
 10
18.3365
 20
19.3518
 11
18.5649
 21
19.0736
  0
LINE
  8
0
 10
18.5649
 20
19.0736
 11
18.8109
 21
18.8109
  0
LINE
  8
0
 10
18.8109
 20
18.8109
 11
19.0736
 21
18.5649
  0
LINE
  8
0
 10
19.0736
 20
18.5649
 11
19.3518
 21
18.3365
  0
LINE
  8
0
 10
19.3518
 20
18.3365
 11
19.6444
 21
18.1269
  0
LINE
  8
0
 10
19.6444
 20
18.1269
 11
19.95
 21
17.9369
  0
LINE
  8
0
 10
19.95
 20
17.9369
 11
20.2674
 21
17.7672
  0
LINE
  8
0
 10
20.2674
 20
17.7672
 11
20.5952
 21
17.6187
  0
LINE
  8
0
 10
20.5952
 20
17.6187
 11
20.9321
 21
17.4919
  0
LINE
  8
0
 10
20.9321
 20
17.4919
 11
21.2765
 21
17.3874
  0
LINE
  8
0
 10
21.2765
 20
17.3874
 11
21.627
 21
17.3057
  0
LINE
  8
0
 10
21.627
 20
17.3057
 11
21.9821
 21
17.247
  0
LINE
  8
0
 10
21.9821
 20
17.247
 11
22.3403
 21
17.2118
  0
LINE
  8
0
 10
22.3403
 20
17.2118
 11
22.7
 21
17.2
  0
LINE
  8
0
 10
22.7
 20
17.2
 11
23.0597
 21
17.2118
  0
LINE
  8
0
 10
255.66
 20
17.2118
 11
256.018
 21
17.247
  0
LINE
  8
0
 10
256.018
 20
17.247
 11
256.373
 21
17.3057
  0
LINE
  8
0
 10
256.373
 20
17.3057
 11
256.723
 21
17.3874
  0
LINE
  8
0
 10
256.723
 20
17.3874
 11
257.068
 21
17.4919
  0
LINE
  8
0
 10
257.068
 20
17.4919
 11
257.405
 21
17.6187
  0
LINE
  8
0
 10
257.405
 20
17.6187
 11
257.733
 21
17.7672
  0
LINE
  8
0
 10
257.733
 20
17.7672
 11
258.05
 21
17.9369
  0
LINE
  8
0
 10
258.05
 20
17.9369
 11
258.356
 21
18.1269
  0
LINE
  8
0
 10
258.356
 20
18.1269
 11
258.648
 21
18.3365
  0
LINE
  8
0
 10
258.648
 20
18.3365
 11
258.926
 21
18.5649
  0
LINE
  8
0
 10
258.926
 20
18.5649
 11
259.189
 21
18.8109
  0
LINE
  8
0
 10
259.189
 20
18.8109
 11
259.435
 21
19.0736
  0
LINE
  8
0
 10
259.435
 20
19.0736
 11
259.663
 21
19.3518
  0
LINE
  8
0
 10
259.663
 20
19.3518
 11
259.873
 21
19.6444
  0
LINE
  8
0
 10
259.873
 20
19.6444
 11
260.063
 21
19.95
  0
LINE
  8
0
 10
260.063
 20
19.95
 11
260.233
 21
20.2674
  0
LINE
  8
0
 10
260.233
 20
20.2674
 11
260.381
 21
20.5952
  0
LINE
  8
0
 10
260.381
 20
20.5952
 11
260.508
 21
20.9321
  0
LINE
  8
0
 10
260.508
 20
20.9321
 11
260.613
 21
21.2765
  0
LINE
  8
0
 10
260.613
 20
21.2765
 11
260.694
 21
21.627
  0
LINE
  8
0
 10
260.694
 20
21.627
 11
260.753
 21
21.9821
  0
LINE
  8
0
 10
260.753
 20
21.9821
 11
260.788
 21
22.3403
  0
LINE
  8
0
 10
260.788
 20
22.3403
 11
260.8
 21
22.7
  0
LINE
  8
0
 10
260.8
 20
22.7
 11
260.788
 21
23.0597
  0
LINE
  8
0
 10
260.788
 20
23.0597
 11
260.753
 21
23.4179
  0
LINE
  8
0
 10
260.753
 20
23.4179
 11
260.694
 21
23.773
  0
LINE
  8
0
 10
260.694
 20
23.773
 11
260.613
 21
24.1235
  0
LINE
  8
0
 10
260.613
 20
24.1235
 11
260.508
 21
24.4679
  0
LINE
  8
0
 10
260.508
 20
24.4679
 11
260.381
 21
24.8047
  0
LINE
  8
0
 10
260.381
 20
24.8047
 11
260.233
 21
25.1326
  0
LINE
  8
0
 10
260.233
 20
25.1326
 11
260.063
 21
25.45
  0
LINE
  8
0
 10
260.063
 20
25.45
 11
259.873
 21
25.7556
  0
LINE
  8
0
 10
259.873
 20
25.7556
 11
259.663
 21
26.0482
  0
LINE
  8
0
 10
259.663
 20
26.0482
 11
259.435
 21
26.3264
  0
LINE
  8
0
 10
259.435
 20
26.3264
 11
259.189
 21
26.5891
  0
LINE
  8
0
 10
259.189
 20
26.5891
 11
258.926
 21
26.8351
  0
LINE
  8
0
 10
258.926
 20
26.8351
 11
258.648
 21
27.0634
  0
LINE
  8
0
 10
258.648
 20
27.0634
 11
258.356
 21
27.2731
  0
LINE
  8
0
 10
258.356
 20
27.2731
 11
258.05
 21
27.4631
  0
LINE
  8
0
 10
258.05
 20
27.4631
 11
257.733
 21
27.6328
  0
LINE
  8
0
 10
257.733
 20
27.6328
 11
257.405
 21
27.7813
  0
LINE
  8
0
 10
257.405
 20
27.7813
 11
257.068
 21
27.9081
  0
LINE
  8
0
 10
257.068
 20
27.9081
 11
256.723
 21
28.0126
  0
LINE
  8
0
 10
256.723
 20
28.0126
 11
256.373
 21
28.0943
  0
LINE
  8
0
 10
256.373
 20
28.0943
 11
256.018
 21
28.1529
  0
LINE
  8
0
 10
256.018
 20
28.1529
 11
255.66
 21
28.1882
  0
LINE
  8
0
 10
255.66
 20
28.1882
 11
255.3
 21
28.2
  0
LINE
  8
0
 10
255.3
 20
28.2
 11
254.94
 21
28.1882
  0
LINE
  8
0
 10
254.94
 20
28.1882
 11
254.582
 21
28.1529
  0
LINE
  8
0
 10
254.582
 20
28.1529
 11
254.227
 21
28.0943
  0
LINE
  8
0
 10
254.227
 20
28.0943
 11
253.876
 21
28.0126
  0
LINE
  8
0
 10
253.876
 20
28.0126
 11
253.532
 21
27.9081
  0
LINE
  8
0
 10
253.532
 20
27.9081
 11
253.195
 21
27.7813
  0
LINE
  8
0
 10
253.195
 20
27.7813
 11
252.867
 21
27.6328
  0
LINE
  8
0
 10
252.867
 20
27.6328
 11
252.55
 21
27.4631
  0
LINE
  8
0
 10
252.55
 20
27.4631
 11
252.244
 21
27.2731
  0
LINE
  8
0
 10
252.244
 20
27.2731
 11
251.952
 21
27.0634
  0
LINE
  8
0
 10
251.952
 20
27.0634
 11
251.674
 21
26.8351
  0
LINE
  8
0
 10
251.674
 20
26.8351
 11
251.411
 21
26.5891
  0
LINE
  8
0
 10
251.411
 20
26.5891
 11
251.165
 21
26.3264
  0
LINE
  8
0
 10
251.165
 20
26.3264
 11
250.937
 21
26.0482
  0
LINE
  8
0
 10
250.937
 20
26.0482
 11
250.727
 21
25.7556
  0
LINE
  8
0
 10
250.727
 20
25.7556
 11
250.537
 21
25.45
  0
LINE
  8
0
 10
250.537
 20
25.45
 11
250.367
 21
25.1326
  0
LINE
  8
0
 10
250.367
 20
25.1326
 11
250.219
 21
24.8047
  0
LINE
  8
0
 10
250.219
 20
24.8047
 11
250.092
 21
24.4679
  0
LINE
  8
0
 10
250.092
 20
24.4679
 11
249.987
 21
24.1235
  0
LINE
  8
0
 10
249.987
 20
24.1235
 11
249.906
 21
23.773
  0
LINE
  8
0
 10
249.906
 20
23.773
 11
249.847
 21
23.4179
  0
LINE
  8
0
 10
249.847
 20
23.4179
 11
249.812
 21
23.0597
  0
LINE
  8
0
 10
249.812
 20
23.0597
 11
249.8
 21
22.7
  0
LINE
  8
0
 10
249.8
 20
22.7
 11
249.812
 21
22.3403
  0
LINE
  8
0
 10
249.812
 20
22.3403
 11
249.847
 21
21.9821
  0
LINE
  8
0
 10
249.847
 20
21.9821
 11
249.906
 21
21.627
  0
LINE
  8
0
 10
249.906
 20
21.627
 11
249.987
 21
21.2765
  0
LINE
  8
0
 10
249.987
 20
21.2765
 11
250.092
 21
20.9321
  0
LINE
  8
0
 10
250.092
 20
20.9321
 11
250.219
 21
20.5952
  0
LINE
  8
0
 10
250.219
 20
20.5952
 11
250.367
 21
20.2674
  0
LINE
  8
0
 10
250.367
 20
20.2674
 11
250.537
 21
19.95
  0
LINE
  8
0
 10
250.537
 20
19.95
 11
250.727
 21
19.6444
  0
LINE
  8
0
 10
250.727
 20
19.6444
 11
250.937
 21
19.3518
  0
LINE
  8
0
 10
250.937
 20
19.3518
 11
251.165
 21
19.0736
  0
LINE
  8
0
 10
251.165
 20
19.0736
 11
251.411
 21
18.8109
  0
LINE
  8
0
 10
251.411
 20
18.8109
 11
251.674
 21
18.5649
  0
LINE
  8
0
 10
251.674
 20
18.5649
 11
251.952
 21
18.3365
  0
LINE
  8
0
 10
251.952
 20
18.3365
 11
252.244
 21
18.1269
  0
LINE
  8
0
 10
252.244
 20
18.1269
 11
252.55
 21
17.9369
  0
LINE
  8
0
 10
252.55
 20
17.9369
 11
252.867
 21
17.7672
  0
LINE
  8
0
 10
252.867
 20
17.7672
 11
253.195
 21
17.6187
  0
LINE
  8
0
 10
253.195
 20
17.6187
 11
253.532
 21
17.4919
  0
LINE
  8
0
 10
253.532
 20
17.4919
 11
253.876
 21
17.3874
  0
LINE
  8
0
 10
253.876
 20
17.3874
 11
254.227
 21
17.3057
  0
LINE
  8
0
 10
254.227
 20
17.3057
 11
254.582
 21
17.247
  0
LINE
  8
0
 10
254.582
 20
17.247
 11
254.94
 21
17.2118
  0
LINE
  8
0
 10
254.94
 20
17.2118
 11
255.3
 21
17.2
  0
LINE
  8
0
 10
255.3
 20
17.2
 11
255.66
 21
17.2118
  0
ENDSEC
  0
SECTION
  2
OBJECTS
  0
DICTIONARY
  0
ENDSEC
  0
EOF
