  0
SECTION
  2
BLOCKS
  0
ENDSEC
  0
SECTION
  2
ENTITIES
  0
LINE
  8
0
 10
23.354
 20
245.321
 11
24.0052
 21
245.386
  0
LINE
  8
0
 10
24.0052
 20
245.386
 11
24.6509
 21
245.492
  0
LINE
  8
0
 10
24.6509
 20
245.492
 11
25.2882
 21
245.641
  0
LINE
  8
0
 10
25.2882
 20
245.641
 11
25.9144
 21
245.831
  0
LINE
  8
0
 10
25.9144
 20
245.831
 11
26.5268
 21
246.061
  0
LINE
  8
0
 10
26.5268
 20
246.061
 11
27.1229
 21
246.331
  0
LINE
  8
0
 10
27.1229
 20
246.331
 11
27.7
 21
246.64
  0
LINE
  8
0
 10
27.7
 20
246.64
 11
28.2557
 21
246.985
  0
LINE
  8
0
 10
28.2557
 20
246.985
 11
28.7876
 21
247.366
  0
LINE
  8
0
 10
28.7876
 20
247.366
 11
29.2935
 21
247.782
  0
LINE
  8
0
 10
29.2935
 20
247.782
 11
29.7711
 21
248.229
  0
LINE
  8
0
 10
29.7711
 20
248.229
 11
30.2184
 21
248.707
  0
LINE
  8
0
 10
30.2184
 20
248.707
 11
30.6335
 21
249.212
  0
LINE
  8
0
 10
30.6335
 20
249.212
 11
31.0147
 21
249.744
  0
LINE
  8
0
 10
31.0147
 20
249.744
 11
31.3602
 21
250.3
  0
LINE
  8
0
 10
31.3602
 20
250.3
 11
31.6687
 21
250.877
  0
LINE
  8
0
 10
31.6687
 20
250.877
 11
31.9388
 21
251.473
  0
LINE
  8
0
 10
31.9388
 20
251.473
 11
32.1693
 21
252.086
  0
LINE
  8
0
 10
32.1693
 20
252.086
 11
32.3593
 21
252.712
  0
LINE
  8
0
 10
32.3593
 20
252.712
 11
32.5078
 21
253.349
  0
LINE
  8
0
 10
32.5078
 20
253.349
 11
32.6144
 21
253.995
  0
LINE
  8
0
 10
32.6144
 20
253.995
 11
32.6786
 21
254.646
  0
LINE
  8
0
 10
32.6786
 20
254.646
 11
32.7
 21
255.3
  0
LINE
  8
0
 10
32.7
 20
255.3
 11
32.6786
 21
255.954
  0
LINE
  8
0
 10
32.6786
 20
255.954
 11
32.6144
 21
256.605
  0
LINE
  8
0
 10
32.6144
 20
256.605
 11
32.5078
 21
257.251
  0
LINE
  8
0
 10
32.5078
 20
257.251
 11
32.3593
 21
257.888
  0
LINE
  8
0
 10
32.3593
 20
257.888
 11
32.1693
 21
258.514
  0
LINE
  8
0
 10
32.1693
 20
258.514
 11
31.9388
 21
259.127
  0
LINE
  8
0
 10
31.9388
 20
259.127
 11
31.6687
 21
259.723
  0
LINE
  8
0
 10
31.6687
 20
259.723
 11
31.3602
 21
260.3
  0
LINE
  8
0
 10
31.3602
 20
260.3
 11
31.0147
 21
260.856
  0
LINE
  8
0
 10
31.0147
 20
260.856
 11
30.6335
 21
261.388
  0
LINE
  8
0
 10
30.6335
 20
261.388
 11
30.2184
 21
261.893
  0
LINE
  8
0
 10
30.2184
 20
261.893
 11
29.7711
 21
262.371
  0
LINE
  8
0
 10
29.7711
 20
262.371
 11
29.2935
 21
262.818
  0
LINE
  8
0
 10
29.2935
 20
262.818
 11
28.7876
 21
263.234
  0
LINE
  8
0
 10
28.7876
 20
263.234
 11
28.2557
 21
263.615
  0
LINE
  8
0
 10
28.2557
 20
263.615
 11
27.7
 21
263.96
  0
LINE
  8
0
 10
27.7
 20
263.96
 11
27.1229
 21
264.269
  0
LINE
  8
0
 10
27.1229
 20
264.269
 11
26.5268
 21
264.539
  0
LINE
  8
0
 10
26.5268
 20
264.539
 11
25.9144
 21
264.769
  0
LINE
  8
0
 10
25.9144
 20
264.769
 11
25.2882
 21
264.959
  0
LINE
  8
0
 10
25.2882
 20
264.959
 11
24.6509
 21
265.108
  0
LINE
  8
0
 10
24.6509
 20
265.108
 11
24.0052
 21
265.214
  0
LINE
  8
0
 10
24.0052
 20
265.214
 11
23.354
 21
265.279
  0
LINE
  8
0
 10
23.354
 20
265.279
 11
22.7
 21
265.3
  0
LINE
  8
0
 10
22.7
 20
265.3
 11
22.046
 21
265.279
  0
LINE
  8
0
 10
22.046
 20
265.279
 11
21.3947
 21
265.214
  0
LINE
  8
0
 10
21.3947
 20
265.214
 11
20.7491
 21
265.108
  0
LINE
  8
0
 10
20.7491
 20
265.108
 11
20.1118
 21
264.959
  0
LINE
  8
0
 10
20.1118
 20
264.959
 11
19.4856
 21
264.769
  0
LINE
  8
0
 10
19.4856
 20
264.769
 11
18.8732
 21
264.539
  0
LINE
  8
0
 10
18.8732
 20
264.539
 11
18.2771
 21
264.269
  0
LINE
  8
0
 10
18.2771
 20
264.269
 11
17.7
 21
263.96
  0
LINE
  8
0
 10
17.7
 20
263.96
 11
17.1443
 21
263.615
  0
LINE
  8
0
 10
17.1443
 20
263.615
 11
16.6124
 21
263.234
  0
LINE
  8
0
 10
16.6124
 20
263.234
 11
16.1065
 21
262.818
  0
LINE
  8
0
 10
16.1065
 20
262.818
 11
15.6289
 21
262.371
  0
LINE
  8
0
 10
15.6289
 20
262.371
 11
15.1816
 21
261.893
  0
LINE
  8
0
 10
15.1816
 20
261.893
 11
14.7665
 21
261.388
  0
LINE
  8
0
 10
14.7665
 20
261.388
 11
14.3853
 21
260.856
  0
LINE
  8
0
 10
14.3853
 20
260.856
 11
14.0397
 21
260.3
  0
LINE
  8
0
 10
14.0397
 20
260.3
 11
13.7313
 21
259.723
  0
LINE
  8
0
 10
13.7313
 20
259.723
 11
13.4612
 21
259.127
  0
LINE
  8
0
 10
13.4612
 20
259.127
 11
13.2307
 21
258.514
  0
LINE
  8
0
 10
13.2307
 20
258.514
 11
13.0407
 21
257.888
  0
LINE
  8
0
 10
13.0407
 20
257.888
 11
12.8921
 21
257.251
  0
LINE
  8
0
 10
12.8921
 20
257.251
 11
12.7855
 21
256.605
  0
LINE
  8
0
 10
12.7855
 20
256.605
 11
12.7214
 21
255.954
  0
LINE
  8
0
 10
12.7214
 20
255.954
 11
12.7
 21
255.3
  0
LINE
  8
0
 10
12.7
 20
255.3
 11
12.7214
 21
254.646
  0
LINE
  8
0
 10
12.7214
 20
254.646
 11
12.7855
 21
253.995
  0
LINE
  8
0
 10
12.7855
 20
253.995
 11
12.8921
 21
253.349
  0
LINE
  8
0
 10
12.8921
 20
253.349
 11
13.0407
 21
252.712
  0
LINE
  8
0
 10
13.0407
 20
252.712
 11
13.2307
 21
252.086
  0
LINE
  8
0
 10
13.2307
 20
252.086
 11
13.4612
 21
251.473
  0
LINE
  8
0
 10
13.4612
 20
251.473
 11
13.7313
 21
250.877
  0
LINE
  8
0
 10
13.7313
 20
250.877
 11
14.0397
 21
250.3
  0
LINE
  8
0
 10
14.0397
 20
250.3
 11
14.3853
 21
249.744
  0
LINE
  8
0
 10
14.3853
 20
249.744
 11
14.7665
 21
249.212
  0
LINE
  8
0
 10
14.7665
 20
249.212
 11
15.1816
 21
248.707
  0
LINE
  8
0
 10
15.1816
 20
248.707
 11
15.6289
 21
248.229
  0
LINE
  8
0
 10
15.6289
 20
248.229
 11
16.1065
 21
247.782
  0
LINE
  8
0
 10
16.1065
 20
247.782
 11
16.6124
 21
247.366
  0
LINE
  8
0
 10
16.6124
 20
247.366
 11
17.1443
 21
246.985
  0
LINE
  8
0
 10
17.1443
 20
246.985
 11
17.7
 21
246.64
  0
LINE
  8
0
 10
17.7
 20
246.64
 11
18.2771
 21
246.331
  0
LINE
  8
0
 10
18.2771
 20
246.331
 11
18.8732
 21
246.061
  0
LINE
  8
0
 10
18.8732
 20
246.061
 11
19.4856
 21
245.831
  0
LINE
  8
0
 10
19.4856
 20
245.831
 11
20.1118
 21
245.641
  0
LINE
  8
0
 10
20.1118
 20
245.641
 11
20.7491
 21
245.492
  0
LINE
  8
0
 10
20.7491
 20
245.492
 11
21.3947
 21
245.386
  0
LINE
  8
0
 10
21.3947
 20
245.386
 11
22.046
 21
245.321
  0
LINE
  8
0
 10
22.046
 20
245.321
 11
22.7
 21
245.3
  0
LINE
  8
0
 10
22.7
 20
245.3
 11
23.354
 21
245.321
  0
LINE
  8
0
 10
311.954
 20
245.321
 11
312.605
 21
245.386
  0
LINE
  8
0
 10
312.605
 20
245.386
 11
313.251
 21
245.492
  0
LINE
  8
0
 10
313.251
 20
245.492
 11
313.888
 21
245.641
  0
LINE
  8
0
 10
313.888
 20
245.641
 11
314.514
 21
245.831
  0
LINE
  8
0
 10
314.514
 20
245.831
 11
315.127
 21
246.061
  0
LINE
  8
0
 10
315.127
 20
246.061
 11
315.723
 21
246.331
  0
LINE
  8
0
 10
315.723
 20
246.331
 11
316.3
 21
246.64
  0
LINE
  8
0
 10
316.3
 20
246.64
 11
316.856
 21
246.985
  0
LINE
  8
0
 10
316.856
 20
246.985
 11
317.388
 21
247.366
  0
LINE
  8
0
 10
317.388
 20
247.366
 11
317.893
 21
247.782
  0
LINE
  8
0
 10
317.893
 20
247.782
 11
318.371
 21
248.229
  0
LINE
  8
0
 10
318.371
 20
248.229
 11
318.818
 21
248.707
  0
LINE
  8
0
 10
318.818
 20
248.707
 11
319.234
 21
249.212
  0
LINE
  8
0
 10
319.234
 20
249.212
 11
319.615
 21
249.744
  0
LINE
  8
0
 10
319.615
 20
249.744
 11
319.96
 21
250.3
  0
LINE
  8
0
 10
319.96
 20
250.3
 11
320.269
 21
250.877
  0
LINE
  8
0
 10
320.269
 20
250.877
 11
320.539
 21
251.473
  0
LINE
  8
0
 10
320.539
 20
251.473
 11
320.769
 21
252.086
  0
LINE
  8
0
 10
320.769
 20
252.086
 11
320.959
 21
252.712
  0
LINE
  8
0
 10
320.959
 20
252.712
 11
321.108
 21
253.349
  0
LINE
  8
0
 10
321.108
 20
253.349
 11
321.214
 21
253.995
  0
LINE
  8
0
 10
321.214
 20
253.995
 11
321.279
 21
254.646
  0
LINE
  8
0
 10
321.279
 20
254.646
 11
321.3
 21
255.3
  0
LINE
  8
0
 10
321.3
 20
255.3
 11
321.279
 21
255.954
  0
LINE
  8
0
 10
321.279
 20
255.954
 11
321.214
 21
256.605
  0
LINE
  8
0
 10
321.214
 20
256.605
 11
321.108
 21
257.251
  0
LINE
  8
0
 10
321.108
 20
257.251
 11
320.959
 21
257.888
  0
LINE
  8
0
 10
320.959
 20
257.888
 11
320.769
 21
258.514
  0
LINE
  8
0
 10
320.769
 20
258.514
 11
320.539
 21
259.127
  0
LINE
  8
0
 10
320.539
 20
259.127
 11
320.269
 21
259.723
  0
LINE
  8
0
 10
320.269
 20
259.723
 11
319.96
 21
260.3
  0
LINE
  8
0
 10
319.96
 20
260.3
 11
319.615
 21
260.856
  0
LINE
  8
0
 10
319.615
 20
260.856
 11
319.234
 21
261.388
  0
LINE
  8
0
 10
319.234
 20
261.388
 11
318.818
 21
261.893
  0
LINE
  8
0
 10
318.818
 20
261.893
 11
318.371
 21
262.371
  0
LINE
  8
0
 10
318.371
 20
262.371
 11
317.893
 21
262.818
  0
LINE
  8
0
 10
317.893
 20
262.818
 11
317.388
 21
263.234
  0
LINE
  8
0
 10
317.388
 20
263.234
 11
316.856
 21
263.615
  0
LINE
  8
0
 10
316.856
 20
263.615
 11
316.3
 21
263.96
  0
LINE
  8
0
 10
316.3
 20
263.96
 11
315.723
 21
264.269
  0
LINE
  8
0
 10
315.723
 20
264.269
 11
315.127
 21
264.539
  0
LINE
  8
0
 10
315.127
 20
264.539
 11
314.514
 21
264.769
  0
LINE
  8
0
 10
314.514
 20
264.769
 11
313.888
 21
264.959
  0
LINE
  8
0
 10
313.888
 20
264.959
 11
313.251
 21
265.108
  0
LINE
  8
0
 10
313.251
 20
265.108
 11
312.605
 21
265.214
  0
LINE
  8
0
 10
312.605
 20
265.214
 11
311.954
 21
265.279
  0
LINE
  8
0
 10
311.954
 20
265.279
 11
311.3
 21
265.3
  0
LINE
  8
0
 10
311.3
 20
265.3
 11
310.646
 21
265.279
  0
LINE
  8
0
 10
310.646
 20
265.279
 11
309.995
 21
265.214
  0
LINE
  8
0
 10
309.995
 20
265.214
 11
309.349
 21
265.108
  0
LINE
  8
0
 10
309.349
 20
265.108
 11
308.712
 21
264.959
  0
LINE
  8
0
 10
308.712
 20
264.959
 11
308.086
 21
264.769
  0
LINE
  8
0
 10
308.086
 20
264.769
 11
307.473
 21
264.539
  0
LINE
  8
0
 10
307.473
 20
264.539
 11
306.877
 21
264.269
  0
LINE
  8
0
 10
306.877
 20
264.269
 11
306.3
 21
263.96
  0
LINE
  8
0
 10
306.3
 20
263.96
 11
305.744
 21
263.615
  0
LINE
  8
0
 10
305.744
 20
263.615
 11
305.212
 21
263.234
  0
LINE
  8
0
 10
305.212
 20
263.234
 11
304.707
 21
262.818
  0
LINE
  8
0
 10
304.707
 20
262.818
 11
304.229
 21
262.371
  0
LINE
  8
0
 10
304.229
 20
262.371
 11
303.782
 21
261.893
  0
LINE
  8
0
 10
303.782
 20
261.893
 11
303.366
 21
261.388
  0
LINE
  8
0
 10
303.366
 20
261.388
 11
302.985
 21
260.856
  0
LINE
  8
0
 10
302.985
 20
260.856
 11
302.64
 21
260.3
  0
LINE
  8
0
 10
302.64
 20
260.3
 11
302.331
 21
259.723
  0
LINE
  8
0
 10
302.331
 20
259.723
 11
302.061
 21
259.127
  0
LINE
  8
0
 10
302.061
 20
259.127
 11
301.831
 21
258.514
  0
LINE
  8
0
 10
301.831
 20
258.514
 11
301.641
 21
257.888
  0
LINE
  8
0
 10
301.641
 20
257.888
 11
301.492
 21
257.251
  0
LINE
  8
0
 10
301.492
 20
257.251
 11
301.386
 21
256.605
  0
LINE
  8
0
 10
301.386
 20
256.605
 11
301.321
 21
255.954
  0
LINE
  8
0
 10
301.321
 20
255.954
 11
301.3
 21
255.3
  0
LINE
  8
0
 10
301.3
 20
255.3
 11
301.321
 21
254.646
  0
LINE
  8
0
 10
301.321
 20
254.646
 11
301.386
 21
253.995
  0
LINE
  8
0
 10
301.386
 20
253.995
 11
301.492
 21
253.349
  0
LINE
  8
0
 10
301.492
 20
253.349
 11
301.641
 21
252.712
  0
LINE
  8
0
 10
301.641
 20
252.712
 11
301.831
 21
252.086
  0
LINE
  8
0
 10
301.831
 20
252.086
 11
302.061
 21
251.473
  0
LINE
  8
0
 10
302.061
 20
251.473
 11
302.331
 21
250.877
  0
LINE
  8
0
 10
302.331
 20
250.877
 11
302.64
 21
250.3
  0
LINE
  8
0
 10
302.64
 20
250.3
 11
302.985
 21
249.744
  0
LINE
  8
0
 10
302.985
 20
249.744
 11
303.366
 21
249.212
  0
LINE
  8
0
 10
303.366
 20
249.212
 11
303.782
 21
248.707
  0
LINE
  8
0
 10
303.782
 20
248.707
 11
304.229
 21
248.229
  0
LINE
  8
0
 10
304.229
 20
248.229
 11
304.707
 21
247.782
  0
LINE
  8
0
 10
304.707
 20
247.782
 11
305.212
 21
247.366
  0
LINE
  8
0
 10
305.212
 20
247.366
 11
305.744
 21
246.985
  0
LINE
  8
0
 10
305.744
 20
246.985
 11
306.3
 21
246.64
  0
LINE
  8
0
 10
306.3
 20
246.64
 11
306.877
 21
246.331
  0
LINE
  8
0
 10
306.877
 20
246.331
 11
307.473
 21
246.061
  0
LINE
  8
0
 10
307.473
 20
246.061
 11
308.086
 21
245.831
  0
LINE
  8
0
 10
308.086
 20
245.831
 11
308.712
 21
245.641
  0
LINE
  8
0
 10
308.712
 20
245.641
 11
309.349
 21
245.492
  0
LINE
  8
0
 10
309.349
 20
245.492
 11
309.995
 21
245.386
  0
LINE
  8
0
 10
309.995
 20
245.386
 11
310.646
 21
245.321
  0
LINE
  8
0
 10
310.646
 20
245.321
 11
311.3
 21
245.3
  0
LINE
  8
0
 10
311.3
 20
245.3
 11
311.954
 21
245.321
  0
LINE
  8
0
 10
23.354
 20
12.7214
 11
24.0052
 21
12.7855
  0
LINE
  8
0
 10
24.0052
 20
12.7855
 11
24.6509
 21
12.8921
  0
LINE
  8
0
 10
24.6509
 20
12.8921
 11
25.2882
 21
13.0407
  0
LINE
  8
0
 10
25.2882
 20
13.0407
 11
25.9144
 21
13.2307
  0
LINE
  8
0
 10
25.9144
 20
13.2307
 11
26.5268
 21
13.4612
  0
LINE
  8
0
 10
26.5268
 20
13.4612
 11
27.1229
 21
13.7313
  0
LINE
  8
0
 10
27.1229
 20
13.7313
 11
27.7
 21
14.0397
  0
LINE
  8
0
 10
27.7
 20
14.0397
 11
28.2557
 21
14.3853
  0
LINE
  8
0
 10
28.2557
 20
14.3853
 11
28.7876
 21
14.7665
  0
LINE
  8
0
 10
28.7876
 20
14.7665
 11
29.2935
 21
15.1816
  0
LINE
  8
0
 10
29.2935
 20
15.1816
 11
29.7711
 21
15.6289
  0
LINE
  8
0
 10
29.7711
 20
15.6289
 11
30.2184
 21
16.1065
  0
LINE
  8
0
 10
30.2184
 20
16.1065
 11
30.6335
 21
16.6124
  0
LINE
  8
0
 10
30.6335
 20
16.6124
 11
31.0147
 21
17.1443
  0
LINE
  8
0
 10
31.0147
 20
17.1443
 11
31.3602
 21
17.7
  0
LINE
  8
0
 10
31.3602
 20
17.7
 11
31.6687
 21
18.2771
  0
LINE
  8
0
 10
31.6687
 20
18.2771
 11
31.9388
 21
18.8732
  0
LINE
  8
0
 10
31.9388
 20
18.8732
 11
32.1693
 21
19.4856
  0
LINE
  8
0
 10
32.1693
 20
19.4856
 11
32.3593
 21
20.1118
  0
LINE
  8
0
 10
32.3593
 20
20.1118
 11
32.5078
 21
20.7491
  0
LINE
  8
0
 10
32.5078
 20
20.7491
 11
32.6144
 21
21.3947
  0
LINE
  8
0
 10
32.6144
 20
21.3947
 11
32.6786
 21
22.046
  0
LINE
  8
0
 10
32.6786
 20
22.046
 11
32.7
 21
22.7
  0
LINE
  8
0
 10
32.7
 20
22.7
 11
32.6786
 21
23.354
  0
LINE
  8
0
 10
32.6786
 20
23.354
 11
32.6144
 21
24.0052
  0
LINE
  8
0
 10
32.6144
 20
24.0052
 11
32.5078
 21
24.6509
  0
LINE
  8
0
 10
32.5078
 20
24.6509
 11
32.3593
 21
25.2882
  0
LINE
  8
0
 10
32.3593
 20
25.2882
 11
32.1693
 21
25.9144
  0
LINE
  8
0
 10
32.1693
 20
25.9144
 11
31.9388
 21
26.5268
  0
LINE
  8
0
 10
31.9388
 20
26.5268
 11
31.6687
 21
27.1229
  0
LINE
  8
0
 10
31.6687
 20
27.1229
 11
31.3602
 21
27.7
  0
LINE
  8
0
 10
31.3602
 20
27.7
 11
31.0147
 21
28.2557
  0
LINE
  8
0
 10
31.0147
 20
28.2557
 11
30.6335
 21
28.7876
  0
LINE
  8
0
 10
30.6335
 20
28.7876
 11
30.2184
 21
29.2935
  0
LINE
  8
0
 10
30.2184
 20
29.2935
 11
29.7711
 21
29.7711
  0
LINE
  8
0
 10
29.7711
 20
29.7711
 11
29.2935
 21
30.2184
  0
LINE
  8
0
 10
29.2935
 20
30.2184
 11
28.7876
 21
30.6335
  0
LINE
  8
0
 10
28.7876
 20
30.6335
 11
28.2557
 21
31.0147
  0
LINE
  8
0
 10
28.2557
 20
31.0147
 11
27.7
 21
31.3602
  0
LINE
  8
0
 10
27.7
 20
31.3602
 11
27.1229
 21
31.6687
  0
LINE
  8
0
 10
27.1229
 20
31.6687
 11
26.5268
 21
31.9388
  0
LINE
  8
0
 10
26.5268
 20
31.9388
 11
25.9144
 21
32.1693
  0
LINE
  8
0
 10
25.9144
 20
32.1693
 11
25.2882
 21
32.3593
  0
LINE
  8
0
 10
25.2882
 20
32.3593
 11
24.6509
 21
32.5078
  0
LINE
  8
0
 10
24.6509
 20
32.5078
 11
24.0052
 21
32.6144
  0
LINE
  8
0
 10
24.0052
 20
32.6144
 11
23.354
 21
32.6786
  0
LINE
  8
0
 10
23.354
 20
32.6786
 11
22.7
 21
32.7
  0
LINE
  8
0
 10
22.7
 20
32.7
 11
22.046
 21
32.6786
  0
LINE
  8
0
 10
22.046
 20
32.6786
 11
21.3947
 21
32.6144
  0
LINE
  8
0
 10
21.3947
 20
32.6144
 11
20.7491
 21
32.5078
  0
LINE
  8
0
 10
20.7491
 20
32.5078
 11
20.1118
 21
32.3593
  0
LINE
  8
0
 10
20.1118
 20
32.3593
 11
19.4856
 21
32.1693
  0
LINE
  8
0
 10
19.4856
 20
32.1693
 11
18.8732
 21
31.9388
  0
LINE
  8
0
 10
18.8732
 20
31.9388
 11
18.2771
 21
31.6687
  0
LINE
  8
0
 10
18.2771
 20
31.6687
 11
17.7
 21
31.3602
  0
LINE
  8
0
 10
17.7
 20
31.3602
 11
17.1443
 21
31.0147
  0
LINE
  8
0
 10
17.1443
 20
31.0147
 11
16.6124
 21
30.6335
  0
LINE
  8
0
 10
16.6124
 20
30.6335
 11
16.1065
 21
30.2184
  0
LINE
  8
0
 10
16.1065
 20
30.2184
 11
15.6289
 21
29.7711
  0
LINE
  8
0
 10
15.6289
 20
29.7711
 11
15.1816
 21
29.2935
  0
LINE
  8
0
 10
15.1816
 20
29.2935
 11
14.7665
 21
28.7876
  0
LINE
  8
0
 10
14.7665
 20
28.7876
 11
14.3853
 21
28.2557
  0
LINE
  8
0
 10
14.3853
 20
28.2557
 11
14.0397
 21
27.7
  0
LINE
  8
0
 10
14.0397
 20
27.7
 11
13.7313
 21
27.1229
  0
LINE
  8
0
 10
13.7313
 20
27.1229
 11
13.4612
 21
26.5268
  0
LINE
  8
0
 10
13.4612
 20
26.5268
 11
13.2307
 21
25.9144
  0
LINE
  8
0
 10
13.2307
 20
25.9144
 11
13.0407
 21
25.2882
  0
LINE
  8
0
 10
13.0407
 20
25.2882
 11
12.8921
 21
24.6509
  0
LINE
  8
0
 10
12.8921
 20
24.6509
 11
12.7855
 21
24.0052
  0
LINE
  8
0
 10
12.7855
 20
24.0052
 11
12.7214
 21
23.354
  0
LINE
  8
0
 10
12.7214
 20
23.354
 11
12.7
 21
22.7
  0
LINE
  8
0
 10
12.7
 20
22.7
 11
12.7214
 21
22.046
  0
LINE
  8
0
 10
12.7214
 20
22.046
 11
12.7855
 21
21.3947
  0
LINE
  8
0
 10
12.7855
 20
21.3947
 11
12.8921
 21
20.7491
  0
LINE
  8
0
 10
12.8921
 20
20.7491
 11
13.0407
 21
20.1118
  0
LINE
  8
0
 10
13.0407
 20
20.1118
 11
13.2307
 21
19.4856
  0
LINE
  8
0
 10
13.2307
 20
19.4856
 11
13.4612
 21
18.8732
  0
LINE
  8
0
 10
13.4612
 20
18.8732
 11
13.7313
 21
18.2771
  0
LINE
  8
0
 10
13.7313
 20
18.2771
 11
14.0397
 21
17.7
  0
LINE
  8
0
 10
14.0397
 20
17.7
 11
14.3853
 21
17.1443
  0
LINE
  8
0
 10
14.3853
 20
17.1443
 11
14.7665
 21
16.6124
  0
LINE
  8
0
 10
14.7665
 20
16.6124
 11
15.1816
 21
16.1065
  0
LINE
  8
0
 10
15.1816
 20
16.1065
 11
15.6289
 21
15.6289
  0
LINE
  8
0
 10
15.6289
 20
15.6289
 11
16.1065
 21
15.1816
  0
LINE
  8
0
 10
16.1065
 20
15.1816
 11
16.6124
 21
14.7665
  0
LINE
  8
0
 10
16.6124
 20
14.7665
 11
17.1443
 21
14.3853
  0
LINE
  8
0
 10
17.1443
 20
14.3853
 11
17.7
 21
14.0397
  0
LINE
  8
0
 10
17.7
 20
14.0397
 11
18.2771
 21
13.7313
  0
LINE
  8
0
 10
18.2771
 20
13.7313
 11
18.8732
 21
13.4612
  0
LINE
  8
0
 10
18.8732
 20
13.4612
 11
19.4856
 21
13.2307
  0
LINE
  8
0
 10
19.4856
 20
13.2307
 11
20.1118
 21
13.0407
  0
LINE
  8
0
 10
20.1118
 20
13.0407
 11
20.7491
 21
12.8921
  0
LINE
  8
0
 10
20.7491
 20
12.8921
 11
21.3947
 21
12.7855
  0
LINE
  8
0
 10
21.3947
 20
12.7855
 11
22.046
 21
12.7214
  0
LINE
  8
0
 10
22.046
 20
12.7214
 11
22.7
 21
12.7
  0
LINE
  8
0
 10
22.7
 20
12.7
 11
23.354
 21
12.7214
  0
LINE
  8
0
 10
311.954
 20
12.7214
 11
312.605
 21
12.7855
  0
LINE
  8
0
 10
312.605
 20
12.7855
 11
313.251
 21
12.8921
  0
LINE
  8
0
 10
313.251
 20
12.8921
 11
313.888
 21
13.0407
  0
LINE
  8
0
 10
313.888
 20
13.0407
 11
314.514
 21
13.2307
  0
LINE
  8
0
 10
314.514
 20
13.2307
 11
315.127
 21
13.4612
  0
LINE
  8
0
 10
315.127
 20
13.4612
 11
315.723
 21
13.7313
  0
LINE
  8
0
 10
315.723
 20
13.7313
 11
316.3
 21
14.0397
  0
LINE
  8
0
 10
316.3
 20
14.0397
 11
316.856
 21
14.3853
  0
LINE
  8
0
 10
316.856
 20
14.3853
 11
317.388
 21
14.7665
  0
LINE
  8
0
 10
317.388
 20
14.7665
 11
317.893
 21
15.1816
  0
LINE
  8
0
 10
317.893
 20
15.1816
 11
318.371
 21
15.6289
  0
LINE
  8
0
 10
318.371
 20
15.6289
 11
318.818
 21
16.1065
  0
LINE
  8
0
 10
318.818
 20
16.1065
 11
319.234
 21
16.6124
  0
LINE
  8
0
 10
319.234
 20
16.6124
 11
319.615
 21
17.1443
  0
LINE
  8
0
 10
319.615
 20
17.1443
 11
319.96
 21
17.7
  0
LINE
  8
0
 10
319.96
 20
17.7
 11
320.269
 21
18.2771
  0
LINE
  8
0
 10
320.269
 20
18.2771
 11
320.539
 21
18.8732
  0
LINE
  8
0
 10
320.539
 20
18.8732
 11
320.769
 21
19.4856
  0
LINE
  8
0
 10
320.769
 20
19.4856
 11
320.959
 21
20.1118
  0
LINE
  8
0
 10
320.959
 20
20.1118
 11
321.108
 21
20.7491
  0
LINE
  8
0
 10
321.108
 20
20.7491
 11
321.214
 21
21.3947
  0
LINE
  8
0
 10
321.214
 20
21.3947
 11
321.279
 21
22.046
  0
LINE
  8
0
 10
321.279
 20
22.046
 11
321.3
 21
22.7
  0
LINE
  8
0
 10
321.3
 20
22.7
 11
321.279
 21
23.354
  0
LINE
  8
0
 10
321.279
 20
23.354
 11
321.214
 21
24.0052
  0
LINE
  8
0
 10
321.214
 20
24.0052
 11
321.108
 21
24.6509
  0
LINE
  8
0
 10
321.108
 20
24.6509
 11
320.959
 21
25.2882
  0
LINE
  8
0
 10
320.959
 20
25.2882
 11
320.769
 21
25.9144
  0
LINE
  8
0
 10
320.769
 20
25.9144
 11
320.539
 21
26.5268
  0
LINE
  8
0
 10
320.539
 20
26.5268
 11
320.269
 21
27.1229
  0
LINE
  8
0
 10
320.269
 20
27.1229
 11
319.96
 21
27.7
  0
LINE
  8
0
 10
319.96
 20
27.7
 11
319.615
 21
28.2557
  0
LINE
  8
0
 10
319.615
 20
28.2557
 11
319.234
 21
28.7876
  0
LINE
  8
0
 10
319.234
 20
28.7876
 11
318.818
 21
29.2935
  0
LINE
  8
0
 10
318.818
 20
29.2935
 11
318.371
 21
29.7711
  0
LINE
  8
0
 10
318.371
 20
29.7711
 11
317.893
 21
30.2184
  0
LINE
  8
0
 10
317.893
 20
30.2184
 11
317.388
 21
30.6335
  0
LINE
  8
0
 10
317.388
 20
30.6335
 11
316.856
 21
31.0147
  0
LINE
  8
0
 10
316.856
 20
31.0147
 11
316.3
 21
31.3602
  0
LINE
  8
0
 10
316.3
 20
31.3602
 11
315.723
 21
31.6687
  0
LINE
  8
0
 10
315.723
 20
31.6687
 11
315.127
 21
31.9388
  0
LINE
  8
0
 10
315.127
 20
31.9388
 11
314.514
 21
32.1693
  0
LINE
  8
0
 10
314.514
 20
32.1693
 11
313.888
 21
32.3593
  0
LINE
  8
0
 10
313.888
 20
32.3593
 11
313.251
 21
32.5078
  0
LINE
  8
0
 10
313.251
 20
32.5078
 11
312.605
 21
32.6144
  0
LINE
  8
0
 10
312.605
 20
32.6144
 11
311.954
 21
32.6786
  0
LINE
  8
0
 10
311.954
 20
32.6786
 11
311.3
 21
32.7
  0
LINE
  8
0
 10
311.3
 20
32.7
 11
310.646
 21
32.6786
  0
LINE
  8
0
 10
310.646
 20
32.6786
 11
309.995
 21
32.6144
  0
LINE
  8
0
 10
309.995
 20
32.6144
 11
309.349
 21
32.5078
  0
LINE
  8
0
 10
309.349
 20
32.5078
 11
308.712
 21
32.3593
  0
LINE
  8
0
 10
308.712
 20
32.3593
 11
308.086
 21
32.1693
  0
LINE
  8
0
 10
308.086
 20
32.1693
 11
307.473
 21
31.9388
  0
LINE
  8
0
 10
307.473
 20
31.9388
 11
306.877
 21
31.6687
  0
LINE
  8
0
 10
306.877
 20
31.6687
 11
306.3
 21
31.3602
  0
LINE
  8
0
 10
306.3
 20
31.3602
 11
305.744
 21
31.0147
  0
LINE
  8
0
 10
305.744
 20
31.0147
 11
305.212
 21
30.6335
  0
LINE
  8
0
 10
305.212
 20
30.6335
 11
304.707
 21
30.2184
  0
LINE
  8
0
 10
304.707
 20
30.2184
 11
304.229
 21
29.7711
  0
LINE
  8
0
 10
304.229
 20
29.7711
 11
303.782
 21
29.2935
  0
LINE
  8
0
 10
303.782
 20
29.2935
 11
303.366
 21
28.7876
  0
LINE
  8
0
 10
303.366
 20
28.7876
 11
302.985
 21
28.2557
  0
LINE
  8
0
 10
302.985
 20
28.2557
 11
302.64
 21
27.7
  0
LINE
  8
0
 10
302.64
 20
27.7
 11
302.331
 21
27.1229
  0
LINE
  8
0
 10
302.331
 20
27.1229
 11
302.061
 21
26.5268
  0
LINE
  8
0
 10
302.061
 20
26.5268
 11
301.831
 21
25.9144
  0
LINE
  8
0
 10
301.831
 20
25.9144
 11
301.641
 21
25.2882
  0
LINE
  8
0
 10
301.641
 20
25.2882
 11
301.492
 21
24.6509
  0
LINE
  8
0
 10
301.492
 20
24.6509
 11
301.386
 21
24.0052
  0
LINE
  8
0
 10
301.386
 20
24.0052
 11
301.321
 21
23.354
  0
LINE
  8
0
 10
301.321
 20
23.354
 11
301.3
 21
22.7
  0
LINE
  8
0
 10
301.3
 20
22.7
 11
301.321
 21
22.046
  0
LINE
  8
0
 10
301.321
 20
22.046
 11
301.386
 21
21.3947
  0
LINE
  8
0
 10
301.386
 20
21.3947
 11
301.492
 21
20.7491
  0
LINE
  8
0
 10
301.492
 20
20.7491
 11
301.641
 21
20.1118
  0
LINE
  8
0
 10
301.641
 20
20.1118
 11
301.831
 21
19.4856
  0
LINE
  8
0
 10
301.831
 20
19.4856
 11
302.061
 21
18.8732
  0
LINE
  8
0
 10
302.061
 20
18.8732
 11
302.331
 21
18.2771
  0
LINE
  8
0
 10
302.331
 20
18.2771
 11
302.64
 21
17.7
  0
LINE
  8
0
 10
302.64
 20
17.7
 11
302.985
 21
17.1443
  0
LINE
  8
0
 10
302.985
 20
17.1443
 11
303.366
 21
16.6124
  0
LINE
  8
0
 10
303.366
 20
16.6124
 11
303.782
 21
16.1065
  0
LINE
  8
0
 10
303.782
 20
16.1065
 11
304.229
 21
15.6289
  0
LINE
  8
0
 10
304.229
 20
15.6289
 11
304.707
 21
15.1816
  0
LINE
  8
0
 10
304.707
 20
15.1816
 11
305.212
 21
14.7665
  0
LINE
  8
0
 10
305.212
 20
14.7665
 11
305.744
 21
14.3853
  0
LINE
  8
0
 10
305.744
 20
14.3853
 11
306.3
 21
14.0397
  0
LINE
  8
0
 10
306.3
 20
14.0397
 11
306.877
 21
13.7313
  0
LINE
  8
0
 10
306.877
 20
13.7313
 11
307.473
 21
13.4612
  0
LINE
  8
0
 10
307.473
 20
13.4612
 11
308.086
 21
13.2307
  0
LINE
  8
0
 10
308.086
 20
13.2307
 11
308.712
 21
13.0407
  0
LINE
  8
0
 10
308.712
 20
13.0407
 11
309.349
 21
12.8921
  0
LINE
  8
0
 10
309.349
 20
12.8921
 11
309.995
 21
12.7855
  0
LINE
  8
0
 10
309.995
 20
12.7855
 11
310.646
 21
12.7214
  0
LINE
  8
0
 10
310.646
 20
12.7214
 11
311.3
 21
12.7
  0
LINE
  8
0
 10
311.3
 20
12.7
 11
311.954
 21
12.7214
  0
ENDSEC
  0
SECTION
  2
OBJECTS
  0
DICTIONARY
  0
ENDSEC
  0
EOF
